<svg width="56" height="42" viewBox="0 0 56 42" fill="none" xmlns="http://www.w3.org/2000/svg">
<path d="M56 3.97633V38.0237C56 40.2193 54.2705 42 52.1379 42H3.86207C1.72948 42 0 40.2193 0 38.0237V3.97633C0 1.78065 1.72948 0 3.86207 0H52.1379C54.2705 0 56 1.78065 56 3.97633Z" fill="#FBCC42"/>
<circle cx="46" cy="29" r="4" fill="#52D176"/>
<path d="M56 3.97633V7.05675C56 8.22517 55.0359 9.04243 54.1607 9.04243C33.8788 10.0682 18.0448 22.5805 11.4247 40.7127C11.1417 41.4878 10.4222 42 9.61788 42H3.86207C1.72912 42 0 40.2197 0 38.0237V3.97633C0 1.78028 1.72912 0 3.86207 0H52.1379C54.2709 0 56 1.78028 56 3.97633Z" fill="#FCE181"/>
<path fill-rule="evenodd" clip-rule="evenodd" d="M50 29C50 26.7909 48.2091 25 46 25C43.7909 25 42 26.7909 42 29C42 31.2091 43.7909 33 46 33C48.2091 33 50 31.2091 50 29ZM43 29C43 27.3431 44.3431 26 46 26C47.6569 26 49 27.3431 49 29C49 30.6569 47.6569 32 46 32C44.3431 32 43 30.6569 43 29Z" fill="#333333"/>
<circle cx="41" cy="29" r="4" fill="#E84A31"/>
<path fill-rule="evenodd" clip-rule="evenodd" d="M45 29C45 26.7909 43.2091 25 41 25C38.7909 25 37 26.7909 37 29C37 31.2091 38.7909 33 41 33C43.2091 33 45 31.2091 45 29ZM38 29C38 27.3431 39.3431 26 41 26C42.6569 26 44 27.3431 44 29C44 30.6569 42.6569 32 41 32C39.3431 32 38 30.6569 38 29Z" fill="#333333"/>
<path fill-rule="evenodd" clip-rule="evenodd" d="M56 3.97633C56 1.78065 54.2705 0 52.1379 0H3.86207C1.72948 0 0 1.78065 0 3.97633V38.0237C0 40.2193 1.72948 42 3.86207 42H52.1379C54.2705 42 56 40.2193 56 38.0237V3.97633ZM3.86207 1H52.1379L52.3054 1.00503C53.802 1.09516 55 2.38544 55 3.97633V38.0237L54.9951 38.1992C54.9076 39.7665 53.6554 41 52.1379 41H3.86207L3.6946 40.995C2.19801 40.9048 1 39.6146 1 38.0237V3.97633L1.00488 3.80085C1.09239 2.23346 2.3446 1 3.86207 1Z" fill="#333333"/>
<path d="M0 9H56V17H0V9Z" fill="#42434D"/>
<path d="M56 9C54.7715 9.38085 42.579 8.8044 29.881 16.9781C29.8376 17.0091 31.2347 16.9981 0 16.9981V9L56 9Z" fill="#4D4E59"/>
<path fill-rule="evenodd" clip-rule="evenodd" d="M56 17V9H0V17H56ZM1 10H55V16H1V10Z" fill="#333333"/>
<rect x="6" y="28" width="19" height="1" rx="0.5" fill="#333333"/>
<rect x="6" y="32" width="12" height="1" rx="0.5" fill="#333333"/>
</svg>
