<svg width="34" height="32" viewBox="0 0 34 32" fill="none" xmlns="http://www.w3.org/2000/svg">
<path fill-rule="evenodd" clip-rule="evenodd" d="M0.377441 24.8526C0.377441 21.3334 3.23034 18.4805 6.74957 18.4805C6.74957 18.4805 7.4188 20.6871 9.23491 20.6871C11.051 20.6871 12.0584 18.4805 12.0584 18.4805H13.5777C16.2473 18.4805 18.4114 20.6446 18.4114 23.3141V26.802L18.3761 28.474C18.3445 29.9737 17.1197 31.1729 15.6197 31.1729H3.13453C1.61183 31.1729 0.377441 29.9386 0.377441 28.4159V24.8526Z" fill="#4A4A4A"/>
<path fill-rule="evenodd" clip-rule="evenodd" d="M6.93345 18.1172C3.13657 18.1172 0.0585938 21.1952 0.0585938 24.992V28.7719C0.0585938 30.2946 1.29298 31.529 2.81567 31.529H5.6392C4.11651 31.529 2.88212 30.2946 2.88212 28.7719V24.992C2.88212 22.1311 4.62972 19.6783 7.11564 18.6429C6.98456 18.3408 6.93345 18.1172 6.93345 18.1172ZM10.6745 19.7086C11.0133 20.0142 11.4648 20.2412 12.0586 20.2412C13.5646 20.2412 14.3073 18.7807 14.517 18.2818C14.1007 18.1744 13.6641 18.1172 13.2141 18.1172H11.7573C11.7573 18.1172 11.4374 19.0794 10.6745 19.7086Z" fill="#333333"/>
<path fill-rule="evenodd" clip-rule="evenodd" d="M18.9437 16.7313C18.9801 15.7432 19.7917 14.9609 20.7805 14.9609H31.1734C32.172 14.9609 32.9879 15.7582 33.0109 16.7566L33.2786 28.3529C33.3143 29.9001 32.0699 31.1736 30.5223 31.1736H21.0338C19.6015 31.1736 18.4554 29.9845 18.5082 28.5532L18.9437 16.7313Z" fill="#FBCC42"/>
<path fill-rule="evenodd" clip-rule="evenodd" d="M20.0529 14.5879C19.0618 14.5879 18.2492 15.3736 18.2159 16.3641L17.7935 28.9167C17.7454 30.345 18.8902 31.5291 20.3193 31.5291H23.1429C21.7137 31.5291 20.5689 30.345 20.617 28.9167L21.0394 16.3641C21.0728 15.3736 21.8854 14.5879 22.8764 14.5879H20.0529Z" fill="#C9A333"/>
<path fill-rule="evenodd" clip-rule="evenodd" d="M9.23506 20.2412C8.02432 20.2412 7.25712 19.5332 6.93345 18.1172H5.24839C2.38215 18.1172 0.0585938 20.4407 0.0585938 23.307V29.5828C0.0585938 30.6576 0.929926 31.529 2.00477 31.529H16.4654C17.1225 31.529 17.7036 31.2032 18.0553 30.7045C17.8782 30.4274 17.7756 30.0982 17.7756 29.745C17.7756 29.7221 17.776 29.6992 17.7769 29.6764L18.0915 21.5088C17.3602 19.5288 15.4558 18.1172 13.2217 18.1172H11.7573C11.2866 19.5332 10.4458 20.2412 9.23506 20.2412ZM12.2287 18.8555L12.2414 18.8231H13.2217L13.4042 18.8267C15.1607 18.8976 16.6992 19.9869 17.3638 21.5861L17.3802 21.629L17.07 29.7095L17.0748 29.9044C17.0882 30.1159 17.1282 30.3228 17.1931 30.5208L17.2115 30.5718L17.1751 30.6002C16.9712 30.7429 16.7253 30.8231 16.4654 30.8231H2.00477L1.90304 30.819C1.26563 30.7672 0.764476 30.2335 0.764476 29.5828V23.307L0.767307 23.1462C0.851981 20.7443 2.82583 18.8231 5.24839 18.8231H6.40165L6.44415 18.9415C6.9334 20.238 7.88761 20.9471 9.23506 20.9471C10.6085 20.9471 11.6271 20.2133 12.2287 18.8555Z" fill="#333333"/>
<path fill-rule="evenodd" clip-rule="evenodd" d="M33.3371 15.8355C33.3103 15.1388 32.7378 14.5879 32.0406 14.5879H18.8997C18.2025 14.5879 17.63 15.1388 17.6032 15.8355L17.0698 29.7108L17.0733 29.8624C17.1337 30.793 17.9076 31.5291 18.8535 31.5291L31.9557 31.5287L32.1114 31.5195C33.1279 31.4191 33.9028 30.5424 33.863 29.5081L33.3371 15.8355ZM18.8997 15.2938H32.0407L32.1129 15.2981C32.3972 15.3328 32.6205 15.5694 32.6318 15.8626L33.1577 29.5352L33.1575 29.637C33.1302 30.276 32.6162 30.7973 31.9659 30.8223L18.8535 30.8232L18.7554 30.8188C18.2059 30.7692 17.7754 30.3074 17.7754 29.7451L18.3085 15.8626L18.3157 15.7906C18.3612 15.5078 18.6062 15.2938 18.8997 15.2938Z" fill="#333333"/>
<path d="M6.41162 15.2939V17.9306C6.41162 19.5929 7.62936 20.941 9.20523 20.941C10.7811 20.941 12.0587 19.5934 12.0587 17.9311V15.2939C11.3433 15.9177 10.4178 16.3129 9.21968 16.3172C8.00893 16.3212 7.13373 15.9242 6.41162 15.2939Z" fill="#FFBD86"/>
<path d="M3.11378 8.15658C2.60367 7.90228 1.99321 7.68109 1.4546 8.44858C0.552189 9.73456 1.26099 13.7049 3.84098 12.8234C3.23592 11.1068 3.12933 9.19841 3.11378 8.15658Z" fill="#FFBD86"/>
<path d="M1.51124 9.64648C1.25913 11.2817 2.16675 13.7823 4.29374 13.0423C4.1731 12.6935 4.07178 12.3389 3.98649 11.9858C2.5143 12.3003 1.69715 10.9802 1.51124 9.64648Z" fill="#FFA664"/>
<path d="M6.41162 16.8221C7.13396 17.6583 8.00871 18.1228 9.21968 18.1174C10.4178 18.1117 11.3433 17.5872 12.0587 16.7595V15.2939C11.3436 16.121 10.4178 16.6449 9.21968 16.6506C8.00893 16.6563 7.13373 16.1928 6.41162 15.3572V16.8221Z" fill="#FFA664"/>
<path fill-rule="evenodd" clip-rule="evenodd" d="M12.0587 15.2942V18.1175C12.0587 19.6897 11.0878 20.941 9.23515 20.941C7.38251 20.941 6.41162 19.6986 6.41162 18.1175V15.2939L6.82686 15.6347C7.49367 16.1819 8.26215 16.7277 9.23515 16.7246C10.2113 16.7214 10.9961 16.1655 11.6435 15.6346L12.0587 15.2942ZM11.3642 16.7096L11.2294 16.791C10.6024 17.1507 10.0681 17.4093 9.23517 17.4121C8.40235 17.4147 7.87344 17.1593 7.25044 16.7952L7.11161 16.7096V18.1174C7.11161 19.3619 7.86827 20.1924 9.09562 20.2502L9.20797 20.2528C10.5017 20.2528 11.3642 19.3695 11.3642 18.0999V16.7096Z" fill="#333333"/>
<path fill-rule="evenodd" clip-rule="evenodd" d="M1.06398 11.5232C0.6337 10.4224 0.666551 9.03578 1.16741 8.29467L1.23888 8.19441C1.79574 7.4543 2.5556 7.36689 3.31377 7.75934L3.48538 7.84817L3.49651 8.3909C3.54419 9.84674 3.75577 11.3283 4.19955 12.6355L4.29406 12.9139L3.99536 13.0199C2.64197 13.5 1.57869 12.84 1.06398 11.5232ZM2.80684 8.41173L2.80241 8.22638L2.7229 8.19933C2.35018 8.08378 2.04416 8.19551 1.75541 8.62272C1.37644 9.18347 1.34816 10.3769 1.71421 11.3134C2.06482 12.2104 2.64839 12.6541 3.41887 12.5223L3.44274 12.5169L3.42905 12.4747C3.04004 11.1958 2.85208 9.7926 2.80684 8.41173Z" fill="#333333"/>
<path d="M15.2202 8.15658C15.7303 7.90228 16.3408 7.68109 16.8794 8.44858C17.7818 9.73456 17.073 13.7049 14.493 12.8234C15.0981 11.1068 15.2047 9.19841 15.2202 8.15658Z" fill="#FFBD86"/>
<path d="M16.959 9.64648C17.2111 11.2817 16.3035 13.7823 14.1765 13.0423C14.2971 12.6935 14.3984 12.3389 14.4837 11.9858C15.9559 12.3003 16.7731 10.9802 16.959 9.64648Z" fill="#FFA664"/>
<path fill-rule="evenodd" clip-rule="evenodd" d="M17.4062 11.5232C17.8365 10.4224 17.8037 9.03578 17.3028 8.29467L17.2313 8.19441C16.6745 7.4543 15.9146 7.36689 15.1564 7.75934L14.9848 7.84817L14.9737 8.3909C14.926 9.84674 14.7144 11.3283 14.2707 12.6355L14.1762 12.9139L14.4749 13.0199C15.8282 13.5 16.8915 12.84 17.4062 11.5232ZM15.6634 8.41173L15.6678 8.22638L15.7473 8.19933C16.12 8.08378 16.4261 8.19551 16.7148 8.62272C17.0938 9.18347 17.1221 10.3769 16.756 11.3134C16.4054 12.2104 15.8218 12.6541 15.0513 12.5223L15.0275 12.5169L15.0412 12.4747C15.4302 11.1958 15.6181 9.7926 15.6634 8.41173Z" fill="#333333"/>
<path d="M15.2084 7.95243C15.2084 7.95243 15.8087 17.1821 9.16893 17.1821C2.52911 17.1821 3.12774 7.95243 3.12774 7.95243C3.12774 7.95243 5.89136 6.13083 7.11144 3.03223C7.11144 3.03223 9.89044 6.46181 15.2084 7.95243Z" fill="#FED2A4"/>
<path d="M2.88221 8.23438C2.85194 8.88396 3.2825 17.4305 9.2641 17.4108C15.0379 17.3919 15.6347 9.42943 15.5882 8.29266C15.5018 10.8157 14.0462 16.281 9.2641 16.2966C4.4207 16.3124 2.97011 10.7113 2.88221 8.23438Z" fill="#FFBD86"/>
<path fill-rule="evenodd" clip-rule="evenodd" d="M5.00173 5.17789C5.63908 4.37213 6.14674 3.52642 6.51242 2.64934L6.55108 2.57102C6.79404 2.1497 7.42808 2.11241 7.71852 2.52406C7.74502 2.56162 7.80237 2.63519 7.8742 2.7219L7.96796 2.83283C8.1008 2.98695 8.25117 3.14909 8.41714 3.31632C9.06512 3.96923 9.83757 4.58943 10.7196 5.15258C12.1103 6.04052 13.6793 6.72497 15.4163 7.18479C15.6944 7.25839 15.8993 7.49326 15.9201 7.78928L15.9379 8.25906C15.9678 9.73176 15.7929 11.2514 15.3943 12.6391C14.4455 15.9414 12.3846 17.754 9.26814 17.7637C6.14613 17.7732 4.07108 15.9676 3.10106 12.661C2.66478 11.1739 2.48493 9.5363 2.53848 7.98532L2.54601 7.81925C2.55865 7.62122 2.66235 7.44114 2.82579 7.32592C2.85894 7.30254 2.92128 7.25561 2.99433 7.19828L3.11026 7.10572C3.2316 7.00719 3.35847 6.89913 3.48889 6.78288C4.02809 6.30223 4.53913 5.76272 5.00173 5.17789ZM7.15218 2.94587L7.02796 3.23246C6.65069 4.05934 6.15648 4.85581 5.55535 5.61578C5.06706 6.2331 4.52789 6.8023 3.95858 7.30978C3.82016 7.43317 3.68505 7.54825 3.55298 7.65547L3.43249 7.75168L3.24935 7.89057L3.24379 8.01335C3.19711 9.36571 3.33745 10.7916 3.67996 12.1066L3.77839 12.4623C4.66536 15.4857 6.48173 17.0663 9.26596 17.0578C12.045 17.0491 13.8485 15.4629 14.7158 12.4441C15.0939 11.1282 15.2607 9.67854 15.2324 8.27957L15.2162 7.86093L14.8217 7.75258C13.3149 7.31728 11.9312 6.71461 10.6782 5.95774L10.3397 5.74751C9.41427 5.15663 8.60113 4.50377 7.91612 3.81354C7.73871 3.63478 7.57712 3.46054 7.4311 3.29111L7.27267 3.10131L7.15218 2.94587Z" fill="#333333"/>
<path fill-rule="evenodd" clip-rule="evenodd" d="M2.88232 6.82267C2.88232 6.82267 5.75954 4.81646 9.23521 4.81646C12.7109 4.81646 15.5881 6.82267 15.5881 6.82267C15.5881 6.82267 15.6157 0.469727 9.24902 0.469727C2.88232 0.469727 2.88232 6.82267 2.88232 6.82267Z" fill="#4A4A4A"/>
<path fill-rule="evenodd" clip-rule="evenodd" d="M5.12895 5.66372C3.75894 6.21143 2.88232 6.82267 2.88232 6.82267C2.88232 6.82267 2.88232 0.469727 9.24902 0.469727C9.62362 0.469727 9.97608 0.491719 10.3077 0.533115C6.53735 1.0035 5.44527 3.97931 5.12895 5.66372ZM10.294 4.87664C13.2763 5.21076 15.5881 6.82267 15.5881 6.82267C15.5881 6.82267 15.5901 6.35155 15.4645 5.6659C14.3518 5.22048 12.9126 4.81646 11.3529 4.81646C10.9926 4.81646 10.6389 4.83801 10.294 4.87664Z" fill="#333333"/>
<path fill-rule="evenodd" clip-rule="evenodd" d="M2.5293 6.82307C2.5293 2.39268 4.80972 0.117188 9.24894 0.117188C13.6888 0.117188 15.9602 2.39361 15.9411 6.8246C15.9398 7.10914 15.6197 7.27533 15.3863 7.11258C13.5271 5.8163 11.4799 5.16981 9.23512 5.16981C6.99038 5.16981 4.94318 5.8163 3.08411 7.11258C2.85013 7.27573 2.5293 7.10831 2.5293 6.82307ZM15.2077 5.97314C14.9622 2.57533 13.0795 0.889806 9.46772 0.825013L9.24894 0.82307C5.49375 0.82307 3.53189 2.50817 3.26639 5.97454L3.25353 6.15672L3.4648 6.02919C5.14346 5.03854 6.96516 4.51747 8.92459 4.46784L9.23512 4.46393C11.3129 4.46393 13.2385 4.9864 15.0055 6.02919L15.2189 6.15883L15.2077 5.97314Z" fill="#333333"/>
<path fill-rule="evenodd" clip-rule="evenodd" d="M2.88232 6.82273C2.88232 6.82273 3.23561 8.40072 4.42194 8.83689C5.60828 9.27305 6.05161 8.18938 9.22079 8.18938C12.39 8.18938 12.3673 8.83689 13.6332 8.83689C14.899 8.83689 15.5882 6.82273 15.5882 6.82273C15.5882 6.82273 13.2066 4.70508 9.22079 4.70508C5.23501 4.70508 2.88232 6.82273 2.88232 6.82273Z" fill="#333333"/>
<path fill-rule="evenodd" clip-rule="evenodd" d="M2.64613 6.5608C4.28393 5.08661 6.48114 4.35254 9.22072 4.35254C11.9597 4.35254 14.1659 5.08627 15.8226 6.55937C15.9289 6.65385 15.9681 6.80286 15.9221 6.93739C15.4192 8.40704 14.659 9.19023 13.6331 9.19023C13.2702 9.19023 12.9867 9.14448 12.6538 9.04582C12.614 9.03402 12.5101 9.00073 12.3968 8.96442C12.322 8.94047 12.2432 8.9152 12.176 8.89394L11.9093 8.81484C11.2449 8.63466 10.4655 8.54273 9.22072 8.54273C8.11979 8.54273 7.31852 8.6668 6.53154 8.90329C6.41952 8.93695 6.16881 9.0188 5.99528 9.07577L5.66093 9.18177C5.46711 9.23766 5.30953 9.27044 5.14866 9.28539C4.86443 9.3118 4.59222 9.27596 4.30008 9.16855C3.38736 8.83298 2.79789 8.06184 2.53783 6.90024C2.50998 6.77584 2.55138 6.64609 2.64613 6.5608ZM14.9939 6.78718C13.5795 5.68412 11.7572 5.10756 9.51551 5.06143L9.22073 5.05842C6.84399 5.05842 4.93279 5.63586 3.47373 6.78599L3.27685 6.94666L3.3164 7.08213C3.5338 7.77308 3.90089 8.223 4.42094 8.45608L4.54367 8.50603C4.73739 8.57725 4.90408 8.5992 5.08336 8.58253C5.2245 8.56942 5.37677 8.53325 5.60095 8.46238C5.60329 8.46164 5.61862 8.45659 5.64351 8.44838C5.77461 8.40519 6.17081 8.27463 6.32841 8.22727L6.54176 8.16585C7.32664 7.94997 8.14672 7.83684 9.22073 7.83684C10.6133 7.83684 11.4784 7.9502 12.2405 8.17502L12.3028 8.19394L12.8544 8.36903C13.1254 8.44934 13.3423 8.48435 13.6331 8.48435C14.232 8.48435 14.7336 8.02628 15.1319 7.03849L15.1731 6.93113L14.9939 6.78718Z" fill="#333333"/>
<path d="M25.4546 10C28.8048 10 30.0131 12.3271 30.0575 15.4746L30.0588 17.4118C30.0588 17.6067 29.9008 17.7647 29.7059 17.7647C29.5326 17.7647 29.3885 17.6399 29.3586 17.4752L29.3529 17.4118V15.657C29.3529 12.7579 28.3432 10.7059 25.4546 10.7059C23.8517 10.7059 22.8047 11.5129 22.1775 12.9149C21.9422 13.4409 21.7812 14.0226 21.6843 14.6211C21.6261 14.9813 21.5962 15.3186 21.5896 15.5598L21.5882 15.657V17.4118C21.5882 17.6067 21.4302 17.7647 21.2353 17.7647C21.062 17.7647 20.9179 17.6399 20.888 17.4752L20.8823 17.4118V15.657C20.8823 14.827 21.0714 13.6587 21.5332 12.6266C22.2662 10.9882 23.5481 10 25.4546 10Z" fill="#333333"/>
</svg>
