<svg width="68" height="68" viewBox="0 0 68 68" fill="none" xmlns="http://www.w3.org/2000/svg">
<g id="illustrations/dish">
<circle id="Oval" cx="34" cy="34" r="28" fill="#E3E3E3"/>
<path id="Combined Shape" fill-rule="evenodd" clip-rule="evenodd" d="M36.9998 51.8851C28.0422 50.8695 21.0816 43.2495 21.0816 34C21.0816 24.7505 28.0422 17.1305 36.9998 16.1149C36.33 16.039 35.6491 16 34.959 16C25.0405 16 17 24.0589 17 34C17 43.9411 25.0405 52 34.959 52C35.6491 52 36.33 51.961 36.9998 51.8851Z" fill="#CCCCCC"/>
<path id="Combined Shape_2" fill-rule="evenodd" clip-rule="evenodd" d="M37.0002 61.8535C22.8366 60.4106 11.7867 48.4908 11.7867 34C11.7867 19.5092 22.8366 7.58943 37.0002 6.14655C36.049 6.04965 35.0838 6 34.1069 6C18.5839 6 6 18.536 6 34C6 49.464 18.5839 62 34.1069 62C35.0838 62 36.049 61.9504 37.0002 61.8535Z" fill="#CCCCCC"/>
<circle id="Oval_2" cx="34" cy="34" r="27.5" stroke="#333333"/>
<circle id="Oval_3" cx="34" cy="34" r="17.5" stroke="#333333"/>
<path id="Path" d="M29.1168 26.0046L28.9638 26C26.4833 26.0133 24.7201 29.5264 25.0368 34.0081C25.112 35.0676 25.6375 36.1272 26.4466 36.8724L26.6243 37.0271C27.1663 37.472 27.4688 38.1426 27.4375 38.8375L26.9487 50.349C26.9487 50.349 27.1358 53 29 53C30.8642 53 31.0751 50.349 31.0751 50.349L30.64 38.7683C30.615 38.1503 30.8509 37.5539 31.2824 37.1232L31.4176 36.9991C32.3132 36.2438 32.896 35.1068 32.9727 33.9676C33.248 29.9013 31.4034 26.1533 29.1168 26.0046Z" fill="#FCE181"/>
<path id="Combined Shape_3" fill-rule="evenodd" clip-rule="evenodd" d="M29.0259 26L29.1812 26.0046C29.4404 26.0211 29.694 26.0826 29.9397 26.1843C27.9435 26.9627 26.6334 30.1212 26.9124 34.0081C26.9889 35.0675 27.5225 36.1272 28.3443 36.8724L28.5248 37.0271C29.0753 37.472 29.3825 38.1426 29.3508 38.8375L28.8543 50.349C28.8543 50.349 28.9765 52.0539 30.0014 52.7292C29.7468 52.896 29.4376 53 29.0626 53C27.1692 53 26.9792 50.349 26.9792 50.349L27.4757 38.8375C27.5075 38.1426 27.2002 37.472 26.6497 37.0271L26.4693 36.8724C25.6475 36.1272 25.1138 35.0675 25.0374 34.0081C24.7157 29.5264 26.5065 26.0133 29.0259 26Z" fill="#FBCC42"/>
<path id="Path_2" d="M43.499 26.0002C43.1665 26.0009 43.075 26.1494 42.9821 26.428C42.9653 26.4784 42.9498 26.5361 42.9348 26.6032L42.9125 26.711C42.8829 26.8648 42.8517 27.0673 42.8185 27.3199L42.7487 27.8927C42.7108 28.2254 42.6701 28.6131 42.6247 29.0719L42.1933 33.6211L42.1155 34.3138L42.094 34.4736H41.128L41.0866 34.1079L41.0219 33.3575C40.9936 32.9852 40.9631 32.5299 40.9238 31.9085L40.7702 29.529C40.7511 29.2629 40.7335 29.0391 40.715 28.8255L40.6631 28.2848C40.6428 28.0986 40.6223 27.9431 40.6013 27.8168C40.5799 27.6883 40.5574 27.5856 40.5298 27.5008C40.5076 27.4325 40.4814 27.372 40.443 27.3125C40.3501 27.1688 40.2109 27.0607 40.0027 27.0607C39.7985 27.0608 39.6588 27.1661 39.5652 27.307C39.5254 27.3671 39.4982 27.4284 39.4752 27.4974C39.4467 27.5831 39.4237 27.6865 39.4019 27.8157C39.3806 27.9423 39.36 28.0981 39.3396 28.2846L39.266 29.0896L38.9842 33.3878C38.9695 33.5813 38.9554 33.7526 38.9407 33.915L38.8901 34.3997L38.88 34.4736H37.863L37.8589 34.4462C37.8194 34.2227 37.7772 33.9079 37.7319 33.5043L37.6527 32.7425L37.254 28.1892L37.2159 27.7973C37.1723 27.3662 37.1334 27.0393 37.0966 26.8064C37.0749 26.6689 37.0535 26.5607 37.0297 26.4752C37.0117 26.4103 36.9915 26.354 36.9625 26.2983C36.8743 26.1288 36.7447 26.0002 36.5 26.0002C36.2239 26.0002 36 26.2372 36 26.5295V35.8236C36 36.7819 36.7696 37.544 37.7028 37.544H37.791C38.1994 37.544 38.5104 37.8667 38.4928 38.234L37.9444 49.7932C37.9301 50.0955 38 53 40 53C42 53 42.0924 50.0975 42.0798 49.7962L41.5947 38.2316C41.5806 37.8953 41.8406 37.5978 42.1976 37.5505L42.2972 37.544C42.7476 37.544 43.1722 37.3657 43.4889 37.052C43.8123 36.7318 44 36.2934 44 35.8236V26.5295C44 26.2368 43.7755 25.9996 43.499 26.0002Z" fill="#FCE181"/>
<path id="Path Copy" d="M29.1168 26.0046L28.9638 26C26.4833 26.0133 24.7201 29.5264 25.0368 34.0081C25.112 35.0676 25.6375 36.1272 26.4466 36.8724L26.6243 37.0271C27.1663 37.472 27.4688 38.1426 27.4375 38.8375L26.9487 50.349C26.9487 50.349 27.1358 53 29 53C30.8642 53 31.0751 50.349 31.0751 50.349L30.64 38.7683C30.615 38.1503 30.8509 37.5539 31.2824 37.1232L31.4176 36.9991C32.3132 36.2438 32.896 35.1068 32.9727 33.9676C33.248 29.9013 31.4034 26.1533 29.1168 26.0046Z" stroke="#333333"/>
<path id="Combined Shape_4" fill-rule="evenodd" clip-rule="evenodd" d="M42.9821 26.428C43.075 26.1494 43.1665 26.0009 43.499 26.0002C43.7755 25.9996 44 26.2368 44 26.5295V33.9727L43.9617 34.3138L43.9402 34.4736H42.9742L42.9328 34.1079L42.8681 33.3575C42.8397 32.9852 42.8092 32.5299 42.7699 31.9085L42.6163 29.529C42.6112 29.4569 42.6061 29.3878 42.6011 29.3212L42.6247 29.0719C42.6701 28.6131 42.7108 28.2254 42.7487 27.8927L42.8185 27.3199C42.8517 27.0673 42.8829 26.8648 42.9125 26.711L42.9348 26.6032C42.9498 26.5361 42.9653 26.4784 42.9821 26.428ZM40.9255 31.9361C40.9249 31.9269 40.9244 31.9177 40.9238 31.9085L40.7702 29.529C40.7511 29.2629 40.7335 29.0391 40.715 28.8256L40.6631 28.2848C40.6428 28.0986 40.6223 27.9431 40.6013 27.8168C40.5799 27.6883 40.5574 27.5856 40.5298 27.5008C40.5076 27.4325 40.4814 27.372 40.443 27.3125C40.3501 27.1688 40.2109 27.0607 40.0027 27.0607C39.7985 27.0608 39.6588 27.1661 39.5652 27.307C39.5254 27.3671 39.4982 27.4284 39.4752 27.4974C39.4467 27.5831 39.4237 27.6865 39.4019 27.8157C39.3806 27.9423 39.36 28.0981 39.3396 28.2846L39.266 29.0896L39.2287 29.6576L39.4988 32.7425L39.578 33.5043C39.6233 33.9079 39.6656 34.2227 39.705 34.4462L39.7092 34.4736H40.7262L40.7362 34.3997L40.7868 33.915C40.8015 33.7526 40.8157 33.5813 40.8303 33.3878L40.9255 31.9361ZM37.8462 34.3714C37.8104 34.1544 37.7723 33.8648 37.7319 33.5043L37.6527 32.7425L37.254 28.1892L37.2159 27.7973C37.1723 27.3662 37.1334 27.0393 37.0966 26.8064C37.0749 26.6689 37.0535 26.5607 37.0297 26.4752C37.0117 26.4103 36.9915 26.354 36.9625 26.2983C36.8743 26.1288 36.7447 26.0002 36.5 26.0002C36.2239 26.0002 36 26.2372 36 26.5295V35.8236C36 36.7819 36.7696 37.544 37.7028 37.544H37.791C38.1994 37.544 38.5104 37.8667 38.4928 38.234L37.9444 49.7932C37.9301 50.0955 38 53 40 53C40.3694 53 40.6736 52.901 40.9242 52.7377C39.8232 52.0163 39.7789 50.0397 39.7906 49.7932L40.3389 38.234C40.3565 37.8667 40.0456 37.544 39.6371 37.544H39.5489C38.6157 37.544 37.8462 36.7819 37.8462 35.8236V34.3714Z" fill="#FBCC42"/>
<path id="Path_3" d="M43.499 26.0002C43.1665 26.0009 43.075 26.1494 42.9821 26.428C42.9653 26.4784 42.9498 26.5361 42.9348 26.6032L42.9125 26.711C42.8829 26.8648 42.8517 27.0673 42.8185 27.3199L42.7487 27.8927C42.7108 28.2254 42.6701 28.6131 42.6247 29.0719L42.1933 33.6211L42.1155 34.3138L42.094 34.4736H41.128L41.0866 34.1079L41.0219 33.3575C40.9936 32.9852 40.9631 32.5299 40.9238 31.9085L40.7702 29.529C40.7511 29.2629 40.7335 29.0391 40.715 28.8255L40.6631 28.2848C40.6428 28.0986 40.6223 27.9431 40.6013 27.8168C40.5799 27.6883 40.5574 27.5856 40.5298 27.5008C40.5076 27.4325 40.4814 27.372 40.443 27.3125C40.3501 27.1688 40.2109 27.0607 40.0027 27.0607C39.7985 27.0608 39.6588 27.1661 39.5652 27.307C39.5254 27.3671 39.4982 27.4284 39.4752 27.4974C39.4467 27.5831 39.4237 27.6865 39.4019 27.8157C39.3806 27.9423 39.36 28.0981 39.3396 28.2846L39.266 29.0896L38.9842 33.3878C38.9695 33.5813 38.9554 33.7526 38.9407 33.915L38.8901 34.3997L38.88 34.4736H37.863L37.8589 34.4462C37.8194 34.2227 37.7772 33.9079 37.7319 33.5043L37.6527 32.7425L37.254 28.1892L37.2159 27.7973C37.1723 27.3662 37.1334 27.0393 37.0966 26.8064C37.0749 26.6689 37.0535 26.5607 37.0297 26.4752C37.0117 26.4103 36.9915 26.354 36.9625 26.2983C36.8743 26.1288 36.7447 26.0002 36.5 26.0002C36.2239 26.0002 36 26.2372 36 26.5295V35.8236C36 36.7819 36.7696 37.544 37.7028 37.544H37.791C38.1994 37.544 38.5104 37.8667 38.4928 38.234L37.9444 49.7932C37.9301 50.0955 38 53 40 53C42 53 42.0924 50.0975 42.0798 49.7962L41.5947 38.2316C41.5806 37.8953 41.8406 37.5978 42.1976 37.5505L42.2972 37.544C42.7476 37.544 43.1722 37.3657 43.4889 37.052C43.8123 36.7318 44 36.2934 44 35.8236V26.5295C44 26.2368 43.7755 25.9996 43.499 26.0002Z" stroke="#333333"/>
<circle id="Oval_4" cx="54" cy="54" r="8" fill="#52D176"/>
<path id="Combined Shape_5" fill-rule="evenodd" clip-rule="evenodd" d="M52.7182 61.8979C50.2461 60.5146 48.5784 57.8966 48.5784 54.8946C48.5784 50.4501 52.234 46.8471 56.7433 46.8471C57.0641 46.8471 57.3805 46.8653 57.6916 46.9008C56.5871 46.3253 55.3315 46 54 46C49.5817 46 46 49.5817 46 54C46 57.982 48.9092 61.2844 52.7182 61.8979Z" fill="#22B573"/>
<circle id="Oval_5" cx="54" cy="54" r="7.5" stroke="#333333"/>
<g id="icon/check_r">
<path id="Path 13" d="M57.1475 51.1453C57.3434 50.9507 57.66 50.9517 57.8547 51.1475C58.0343 51.3284 58.0473 51.612 57.8942 51.8077L57.8525 51.8547L52.8212 56.8547C52.642 57.0328 52.3613 57.0473 52.1655 56.8976L52.1184 56.8567L50.1497 54.9232C49.9526 54.7297 49.9498 54.4132 50.1433 54.2162C50.3219 54.0343 50.6053 54.0179 50.8029 54.1686L50.8503 54.2098L52.4665 55.797L57.1475 51.1453Z" fill="#333333"/>
</g>
</g>
</svg>
