<svg width="32" height="32" viewBox="0 0 32 32" fill="none" xmlns="http://www.w3.org/2000/svg">
<g clip-path="url(#clip0)">
<path d="M31.0115 29.9734H0.994103C0.708291 29.9734 0.476562 29.7416 0.476562 29.4558C0.476562 29.17 0.708291 28.9383 0.994103 28.9383H30.4939V5.13137C30.4939 4.84556 30.7257 4.61383 31.0115 4.61383C31.2973 4.61383 31.529 4.84556 31.529 5.13137V29.4558C31.529 29.7416 31.2973 29.9734 31.0115 29.9734Z" fill="#5A6470"/>
<path d="M3.58203 15.9997H9.79254V27.3856H3.58203V15.9997Z" fill="#FBCC42"/>
<path d="M12.8984 9.78922H19.1089V27.3856H12.8984V9.78922Z" fill="#E84A31"/>
<path d="M22.2139 4.61383H28.4244V27.3856H22.2139V4.61383Z" fill="#52D176"/>
<path d="M11.3454 3.06115L13.0497 4.76541L8.75773 9.05738L7.57101 7.87066C7.36891 7.66863 7.0413 7.66863 6.8392 7.87066L0.628705 14.0812C0.423112 14.2797 0.417419 14.6074 0.61596 14.813C0.814502 15.0186 1.14217 15.0242 1.34776 14.8257C1.3521 14.8216 1.3563 14.8173 1.36051 14.813L7.2051 8.96837L8.39183 10.1551C8.59393 10.3571 8.92153 10.3571 9.12363 10.1551L13.7815 5.49722L15.4858 7.20148L16.0033 2.54361L11.3454 3.06115Z" fill="#E84A31"/>
<path d="M5.65231 25.8331C5.36649 25.8331 5.13477 25.6014 5.13477 25.3156V24.2805C5.13477 23.9947 5.36649 23.7629 5.65231 23.7629C5.93812 23.7629 6.16985 23.9947 6.16985 24.2805V25.3156C6.16985 25.6014 5.93818 25.8331 5.65231 25.8331Z" fill="white"/>
<path d="M5.65231 22.7278C5.36649 22.7278 5.13477 22.4961 5.13477 22.2103V20.1401C5.13477 19.8543 5.36649 19.6226 5.65231 19.6226C5.93812 19.6226 6.16985 19.8543 6.16985 20.1401V22.2103C6.16985 22.4961 5.93818 22.7278 5.65231 22.7278Z" fill="white"/>
<path d="M14.9677 25.8331C14.6819 25.8331 14.4502 25.6014 14.4502 25.3156V24.2805C14.4502 23.9947 14.6819 23.7629 14.9677 23.7629C15.2535 23.7629 15.4853 23.9947 15.4853 24.2805V25.3156C15.4853 25.6014 15.2536 25.8331 14.9677 25.8331Z" fill="white"/>
<path d="M14.9677 22.7278C14.6819 22.7278 14.4502 22.4961 14.4502 22.2103V17.0348C14.4502 16.749 14.6819 16.5173 14.9677 16.5173C15.2535 16.5173 15.4853 16.749 15.4853 17.0348V22.2103C15.4853 22.4961 15.2536 22.7278 14.9677 22.7278Z" fill="white"/>
<path d="M24.2841 25.8331C23.9983 25.8331 23.7666 25.6014 23.7666 25.3156V24.2805C23.7666 23.9947 23.9983 23.7629 24.2841 23.7629C24.57 23.7629 24.8017 23.9947 24.8017 24.2805V25.3156C24.8017 25.6014 24.57 25.8331 24.2841 25.8331Z" fill="white"/>
<path d="M24.2841 22.7278C23.9983 22.7278 23.7666 22.4961 23.7666 22.2103V11.8594C23.7666 11.5736 23.9983 11.3419 24.2841 11.3419C24.57 11.3419 24.8017 11.5736 24.8017 11.8594V22.2103C24.8017 22.4961 24.57 22.7278 24.2841 22.7278Z" fill="white"/>
<path d="M31.0115 4.61383C30.7257 4.61383 30.4939 4.84556 30.4939 5.13137V28.9383H0.994103C0.708291 28.9383 0.476562 29.17 0.476562 29.4558C0.476562 29.7416 0.708291 29.9734 0.994103 29.9734H31.0115C31.2973 29.9734 31.529 29.7416 31.529 29.4558V5.13137C31.529 4.84549 31.2973 4.61383 31.0115 4.61383Z" fill="#333333"/>
<path d="M3.58199 15.4822C3.29618 15.4822 3.06445 15.7139 3.06445 15.9997V27.3857C3.06445 27.6715 3.29618 27.9032 3.58199 27.9032H9.79248C10.0783 27.9032 10.31 27.6715 10.31 27.3857V15.9997C10.31 15.7139 10.0783 15.4822 9.79248 15.4822H3.58199ZM9.27494 26.8681H4.09953V16.5173H9.27494V26.8681Z" fill="#333333"/>
<path d="M12.8984 9.27167C12.6126 9.27167 12.3809 9.5034 12.3809 9.78921V27.3856C12.3809 27.6714 12.6126 27.9032 12.8984 27.9032H19.1089C19.3947 27.9032 19.6265 27.6714 19.6265 27.3856V9.78921C19.6265 9.5034 19.3947 9.27167 19.1089 9.27167H12.8984ZM18.5914 26.8681H13.4159V10.3068H18.5914V26.8681Z" fill="#333333"/>
<path d="M22.2138 27.9032H28.4243C28.7101 27.9032 28.9419 27.6715 28.9419 27.3857V4.61385C28.9419 4.32804 28.7101 4.09631 28.4243 4.09631H22.2138C21.928 4.09631 21.6963 4.32804 21.6963 4.61385V27.3857C21.6963 27.6715 21.928 27.9032 22.2138 27.9032ZM22.7314 5.1314H27.9068V26.8681H22.7314V5.1314Z" fill="#333333"/>
<path d="M0.629065 14.8129C0.831165 15.0149 1.15877 15.0149 1.36087 14.8129L7.20546 8.96826L8.39219 10.155C8.59429 10.357 8.92189 10.357 9.12399 10.155L13.416 5.86301L15.1202 7.56728C15.3227 7.76905 15.6504 7.76847 15.8522 7.56598C15.9352 7.48272 15.9873 7.37359 16 7.25675L16.5176 2.59888C16.5478 2.31462 16.3418 2.0598 16.0576 2.02958C16.0212 2.0257 15.9846 2.0257 15.9483 2.02958L11.2904 2.54712C11.0063 2.57811 10.801 2.83352 10.832 3.11771C10.8448 3.23461 10.8969 3.34369 10.9799 3.42695L12.6842 5.13121L8.75809 9.05728L7.57137 7.87056C7.36927 7.66852 7.04166 7.66852 6.83956 7.87056L0.629065 14.0811C0.42703 14.2832 0.42703 14.6108 0.629065 14.8129ZM15.4178 3.12936L15.0907 6.07365L12.4735 3.45645L15.4178 3.12936Z" fill="#333333"/>
<path d="M5.65231 25.833C5.93812 25.833 6.16985 25.6013 6.16985 25.3154V24.2804C6.16985 23.9945 5.93812 23.7628 5.65231 23.7628C5.36649 23.7628 5.13477 23.9945 5.13477 24.2804V25.3154C5.13477 25.6013 5.36649 25.833 5.65231 25.833Z" fill="#333333"/>
<path d="M5.65231 22.7278C5.93812 22.7278 6.16985 22.4961 6.16985 22.2103V20.1401C6.16985 19.8543 5.93812 19.6226 5.65231 19.6226C5.36649 19.6226 5.13477 19.8543 5.13477 20.1401V22.2103C5.13477 22.4961 5.36649 22.7278 5.65231 22.7278Z" fill="#333333"/>
<path d="M14.9677 25.833C15.2536 25.833 15.4853 25.6013 15.4853 25.3154V24.2804C15.4853 23.9945 15.2536 23.7628 14.9677 23.7628C14.6819 23.7628 14.4502 23.9945 14.4502 24.2804V25.3154C14.4502 25.6013 14.6819 25.833 14.9677 25.833Z" fill="#333333"/>
<path d="M14.9677 22.7278C15.2536 22.7278 15.4853 22.496 15.4853 22.2102V17.0348C15.4853 16.749 15.2536 16.5172 14.9677 16.5172C14.6819 16.5172 14.4502 16.749 14.4502 17.0348V22.2102C14.4502 22.496 14.6819 22.7278 14.9677 22.7278Z" fill="#333333"/>
<path d="M24.2841 23.7628C23.9983 23.7628 23.7666 23.9945 23.7666 24.2804V25.3154C23.7666 25.6013 23.9983 25.833 24.2841 25.833C24.57 25.833 24.8017 25.6013 24.8017 25.3154V24.2804C24.8017 23.9945 24.57 23.7628 24.2841 23.7628Z" fill="#333333"/>
<path d="M24.2841 11.3419C23.9983 11.3419 23.7666 11.5736 23.7666 11.8594V22.2103C23.7666 22.4961 23.9983 22.7278 24.2841 22.7278C24.57 22.7278 24.8017 22.4961 24.8017 22.2103V11.8594C24.8017 11.5736 24.57 11.3419 24.2841 11.3419Z" fill="#333333"/>
</g>
<defs>
<clipPath id="clip0">
<rect width="31.0588" height="31.0588" fill="white" transform="translate(0.470703 0.470581)"/>
</clipPath>
</defs>
</svg>
