<?xml version="1.0" encoding="UTF-8"?>
<svg width="180px" height="21px" viewBox="0 0 180 21" version="1.1" xmlns="http://www.w3.org/2000/svg" xmlns:xlink="http://www.w3.org/1999/xlink">
    <title>F49D1889-4D5E-4776-B8E2-CEEC7859ABC6</title>
    <defs>
        <polygon id="path-1" points="0.165060967 0.0358513932 25.0276495 0.0358513932 25.0276495 19.504644 0.165060967 19.504644"></polygon>
        <polygon id="path-3" points="0 19.504644 179.935913 19.504644 179.935913 0.0358513932 0 0.0358513932"></polygon>
    </defs>
    <g id="Page-1" stroke="none" stroke-width="1" fill="none" fill-rule="evenodd">
        <g id="2.0.Onboarding" transform="translate(-90.000000, -42.000000)">
            <g id="Logo" transform="translate(90.000000, 42.000000)">
                <polygon id="Fill-1" fill="#FFFFFF" points="8.7774613 19.6545511 14.7217337 19.6545511 14.7217337 7.95176471 8.7774613 7.95176471"></polygon>
                <polygon id="Fill-2" fill="#FFFFFF" points="33.2509598 19.6545511 39.1952322 19.6545511 39.1952322 7.95176471 33.2509598 7.95176471"></polygon>
                <polygon id="Fill-3" fill="#FFFFFF" points="58.2871207 19.6545511 64.2313932 19.6545511 64.2313932 7.95176471 58.2871207 7.95176471"></polygon>
                <g id="Group-26" transform="translate(0.000000, 0.149907)">
                    <path d="M24.7807802,13.0652879 C24.5220186,12.640644 23.9679009,12.5057833 23.543257,12.7647307 L22.3308111,13.5033065 L22.3308111,10.3223777 C22.6776223,10.4323467 23.0712446,10.3251641 23.3097585,10.0223777 C23.6177461,9.63191331 23.5508731,9.0655356 23.1604087,8.75773375 L12.3581796,0.237919505 C12.0310588,-0.0200990712 11.5700062,-0.0200990712 11.2428854,0.237733746 L0.343133127,8.82832198 C-0.0475170279,9.1363096 -0.114575851,9.70250155 0.193411765,10.0931517 C0.371182663,10.3186625 0.634773994,10.4364334 0.901151703,10.4364334 C1.02672446,10.4364334 1.15211146,10.4072693 1.27006811,10.3539567 L1.27006811,18.6040495 C1.27006811,19.1015108 1.67316409,19.5046068 2.17062539,19.5046068 L10.8464768,19.5046068 L10.9891393,14.5329659 C10.1132879,14.0903034 9.53223529,12.9395294 9.53223529,11.6223158 C9.53223529,10.8008916 9.75997523,9.95253251 10.1569412,9.29476161 C10.5888297,8.57996285 11.1550217,8.18634056 11.751678,8.18634056 C12.3483344,8.18634056 12.9145263,8.57996285 13.3462291,9.29476161 C13.7433808,9.95253251 13.9711207,10.8008916 13.9711207,11.6223158 C13.9711207,12.9395294 13.3902539,14.0904892 12.5142167,14.5329659 L12.6568793,19.5046068 L21.4302539,19.5046068 C21.9277152,19.5046068 22.3308111,19.1015108 22.3308111,18.6040495 L22.3308111,15.6124087 L24.4804087,14.3029969 C24.9050526,14.0442353 25.0397276,13.4901176 24.7807802,13.0652879" id="Fill-4" fill="#FBCC42"></path>
                    <path d="M49.2034923,13.0652879 C48.9445449,12.6404582 48.3904272,12.5057833 47.9657833,12.7647307 L46.7535232,13.5031207 L46.7535232,10.3064025 C47.1114799,10.442935 47.5314799,10.3392817 47.7813251,10.0223777 C48.0893127,9.63191331 48.0224396,9.0655356 47.6317895,8.75773375 L36.8295604,0.237919505 C36.5024396,-0.0200990712 36.041387,-0.0200990712 35.7142663,0.237733746 L24.8145139,8.82832198 C24.4240495,9.1363096 24.3569907,9.70250155 24.6646068,10.0931517 C24.8423777,10.3186625 25.1061548,10.4364334 25.3727183,10.4364334 C25.4810155,10.4364334 25.5891269,10.4148854 25.6927802,10.3753189 L25.6927802,13.5033065 L24.4803344,12.7647307 C24.0553189,12.5057833 23.501387,12.640644 23.2426254,13.0652879 C22.9838638,13.4901176 23.1183529,14.0442353 23.5431827,14.3029969 L25.6927802,15.6124087 L25.6927802,18.6040495 C25.6927802,19.1015108 26.0958762,19.5046068 26.5933375,19.5046068 L35.3273313,19.5046068 L35.4523467,14.7503034 C35.1776099,14.6507368 34.9281362,14.500644 34.7104272,14.3035542 C34.6548854,14.2532136 34.6012012,14.1997152 34.5508607,14.1441734 C34.1048545,13.6584149 33.860582,13.0270217 33.8637399,12.3668359 L33.8637399,8.67618576 C33.8637399,8.43711455 34.0582291,8.24262539 34.2973003,8.24262539 C34.5363715,8.24262539 34.7308607,8.43711455 34.7308607,8.67618576 L34.7308607,11.4523467 L35.147517,11.4523467 L35.147517,8.67618576 C35.147517,8.43711455 35.3420062,8.24262539 35.5810774,8.24262539 C35.8203344,8.24262539 36.0148235,8.43711455 36.0148235,8.67618576 L36.0148235,11.4523467 L36.4314799,11.4523467 L36.4314799,8.67618576 C36.4314799,8.43711455 36.625969,8.24262539 36.8650402,8.24262539 C37.1041115,8.24262539 37.2986006,8.43711455 37.2986006,8.67618576 L37.2986006,11.4523467 L37.715257,11.4523467 L37.715257,8.67618576 C37.715257,8.43711455 37.9097461,8.24262539 38.1488173,8.24262539 C38.3878885,8.24262539 38.5825635,8.43711455 38.5825635,8.67618576 L38.5825635,12.3673932 C38.5857214,13.0270217 38.3414489,13.6584149 37.8946997,14.1447307 C37.6485697,14.4166811 37.3383529,14.6251022 36.9937709,14.7501176 L37.1189721,19.5046068 L45.8529659,19.5046068 C46.3504272,19.5046068 46.7535232,19.1015108 46.7535232,18.6040495 L46.7535232,15.6122229 L48.902935,14.3029969 C49.3275789,14.0442353 49.4622539,13.4901176 49.2034923,13.0652879" id="Fill-6" fill="#E84A31"></path>
                    <g id="Group-10" transform="translate(47.368421, 0.000000)">
                        <mask id="mask-2" fill="white">
                            <use xlink:href="#path-1"></use>
                        </mask>
                        <g id="Clip-9"></g>
                        <path d="M24.6846316,8.74904025 L13.8824025,0.229226006 C13.5552817,-0.0286068111 13.0940433,-0.0286068111 12.7671084,0.229040248 L1.86735604,8.81981424 C1.47670588,9.1276161 1.40964706,9.69399381 1.71744892,10.084644 C1.89521981,10.3101548 2.1589969,10.4277399 2.42556037,10.4277399 C2.5342291,10.4277399 2.64289783,10.4060062 2.7469226,10.3660681 L2.7469226,13.5033437 L1.53447678,12.7647678 C1.1094613,12.5058204 0.555343653,12.6406811 0.296767802,13.0653251 C0.0378204334,13.489969 0.172495356,14.0440867 0.597325077,14.3028483 L2.7469226,15.6124458 L2.7469226,18.6040867 C2.7469226,19.1013622 3.15001858,19.504644 3.64747988,19.504644 L12.7906997,19.504644 L12.8806068,17.3112074 L12.8401115,17.3112074 C12.6824025,17.3112074 12.5538576,17.1826625 12.5538576,17.0249536 L12.5538576,8.52910217 C12.5538576,8.4130031 12.6233313,8.30916409 12.7303282,8.2647678 C12.8378824,8.22018576 12.9602972,8.24470588 13.0424025,8.32681115 L13.1650031,8.44941176 C14.7510093,10.0359752 15.5553437,11.902291 15.5557152,13.996161 L15.5557152,17.0249536 C15.5557152,17.1826625 15.427356,17.3112074 15.2696471,17.3112074 L14.5349721,17.3112074 L14.625065,19.504644 L22.904322,19.504644 C23.4017833,19.504644 23.805065,19.1013622 23.805065,18.6040867 L23.805065,10.2973375 C24.1632074,10.434613 24.5839505,10.3309598 24.8341672,10.01387 C25.1421548,9.62321981 25.0752817,9.05702786 24.6846316,8.74904025" id="Fill-8" fill="#52D176" mask="url(#mask-2)"></path>
                    </g>
                    <path d="M86.8014427,15.0412384 C89.1841672,15.0412384 90.7989659,13.9385759 90.7989659,11.4969659 C90.7989659,9.07504644 89.2038576,7.87393189 86.7425573,7.87393189 L84.7930217,7.87393189 L84.7930217,15.0412384 L86.8014427,15.0412384 Z M86.7620619,5.94408669 C90.3065201,5.94408669 92.8859628,8.03145511 92.8859628,11.4969659 C92.8859628,14.9823529 90.3065201,16.9710836 86.8211331,16.9710836 L82.7255294,16.9710836 L82.7255294,5.94408669 L86.7620619,5.94408669 Z" id="Fill-11" fill="#FFFFFF"></path>
                    <polygon id="Fill-13" fill="#FFFFFF" points="96.1343591 5.94416099 104.18792 5.94416099 104.18792 7.87400619 98.2020372 7.87400619 98.2020372 10.3943777 102.711139 10.3943777 102.711139 12.2253994 98.2020372 12.2253994 98.2020372 15.0413127 104.286557 15.0413127 104.286557 16.9709721 96.1343591 16.9709721"></polygon>
                    <path d="M118.561616,15.2382539 C119.723536,15.2382539 120.471585,14.6672322 120.471585,13.7022167 C120.471585,12.6980062 119.664464,12.0876037 118.522235,12.0876037 L115.942793,12.0876037 L115.942793,15.2382539 L118.561616,15.2382539 Z M118.148118,10.4731765 C119.073752,10.4731765 119.881059,10.0006068 119.881059,9.05528173 C119.881059,8.28735604 119.290347,7.67695356 118.167808,7.67695356 L115.942793,7.67695356 L115.942793,10.4731765 L118.148118,10.4731765 Z M120.294557,11.1424644 C121.41691,11.3984396 122.618025,12.2254365 122.618025,13.8402353 C122.618025,15.5533003 121.298582,16.9710093 118.660068,16.9710093 L113.875115,16.9710093 L113.875115,5.94419814 L118.542111,5.94419814 C120.570223,5.94419814 121.948551,7.26345511 121.948551,8.7599257 C121.948551,10.1579443 121.062483,10.8276037 120.294557,11.0637028 L120.294557,11.1424644 Z" id="Fill-15" fill="#FFFFFF"></path>
                    <path d="M131.419598,10.4731022 C130.710743,8.58263777 130.434892,7.69675542 130.415387,7.67687926 L130.35613,7.67687926 L129.293034,10.5912446 L128.564303,12.5799752 L132.207028,12.5799752 L131.419598,10.4731022 Z M127.91452,14.3718019 L126.94969,16.970935 L124.842817,16.970935 L129.155201,5.94412384 L131.655697,5.94412384 L135.96808,16.970935 L133.821827,16.970935 L132.856997,14.3718019 L127.91452,14.3718019 Z" id="Fill-17" fill="#FFFFFF"></path>
                    <path d="M142.977622,11.3001362 C144.454402,11.3001362 145.222328,10.7092384 145.222328,9.54750464 C145.222328,8.3660805 144.415022,7.81474923 142.977622,7.81474923 L140.988892,7.81474923 L140.988892,11.3001362 L142.977622,11.3001362 Z M143.095765,12.8950588 C142.741337,12.9145635 142.170316,12.9145635 141.953536,12.9145635 L140.988892,12.9145635 L140.988892,16.9709721 L138.921214,16.9709721 L138.921214,5.94416099 L142.87917,5.94416099 C145.694898,5.94416099 147.329387,7.24372755 147.329387,9.42954799 C147.329387,11.1229226 146.364372,12.1269474 145.064805,12.5012508 L147.78208,16.9709721 L145.557251,16.9709721 L143.095765,12.8950588 Z" id="Fill-19" fill="#FFFFFF"></path>
                    <path d="M154.988601,11.3001362 C156.465381,11.3001362 157.233307,10.7092384 157.233307,9.54750464 C157.233307,8.3660805 156.426,7.81474923 154.988601,7.81474923 L152.99987,7.81474923 L152.99987,11.3001362 L154.988601,11.3001362 Z M155.106743,12.8950588 C154.752316,12.9145635 154.181294,12.9145635 153.9647,12.9145635 L152.99987,12.9145635 L152.99987,16.9709721 L150.932192,16.9709721 L150.932192,5.94416099 L154.890149,5.94416099 C157.705876,5.94416099 159.340365,7.24372755 159.340365,9.42954799 C159.340365,11.1229226 158.37535,12.1269474 157.075783,12.5012508 L159.793059,16.9709721 L157.568229,16.9709721 L155.106743,12.8950588 Z" id="Fill-21" fill="#FFFFFF"></path>
                    <mask id="mask-4" fill="white">
                        <use xlink:href="#path-3"></use>
                    </mask>
                    <g id="Clip-24"></g>
                    <polygon id="Fill-23" fill="#FFFFFF" mask="url(#mask-4)" points="162.943096 16.9708978 165.010774 16.9708978 165.010774 5.94408669 162.943096 5.94408669"></polygon>
                    <path d="M174.068043,15.2973994 C176.233988,15.2973994 177.82891,13.7416718 177.82891,11.4575851 C177.82891,9.17349845 176.233988,7.6177709 174.068043,7.6177709 C171.902099,7.6177709 170.326681,9.17349845 170.326681,11.4575851 C170.326681,13.7416718 171.902099,15.2973994 174.068043,15.2973994 M174.068043,5.72749226 C177.415598,5.72749226 179.935969,8.12990712 179.935969,11.4575851 C179.935969,14.8051393 177.415598,17.187678 174.068043,17.187678 C170.740365,17.187678 168.239498,14.8051393 168.239498,11.4575851 C168.239498,8.12990712 170.740365,5.72749226 174.068043,5.72749226" id="Fill-25" fill="#FFFFFF" mask="url(#mask-4)"></path>
                </g>
            </g>
        </g>
    </g>
</svg>