<svg xmlns="http://www.w3.org/2000/svg" xmlns:xlink="http://www.w3.org/1999/xlink" width="224" height="124" viewBox="0 0 224 124">
    <defs>
        <path id="prefix__a" d="M0.084 0.158L76.903 0.158 76.903 60.312 0.084 60.312z"/>
        <path id="prefix__c" d="M0 123.668L223.686 123.668 223.686 0.348 0 0.348z"/>
    </defs>
    <g fill="none" fill-rule="evenodd">
        <path fill="#FBCC42" d="M76.567 40.606c-.8-1.312-2.512-1.729-3.824-.929l-3.746 2.282v-9.828c1.07.34 2.287.008 3.025-.927.951-1.207.744-2.956-.462-3.908L38.183.972c-1.01-.797-2.435-.797-3.445 0L1.06 27.515c-1.207.951-1.414 2.7-.463 3.908.55.696 1.364 1.06 2.187 1.06.389 0 .776-.09 1.14-.255V57.72c0 1.537 1.246 2.783 2.782 2.783h26.807l.44-15.361c-2.706-1.368-4.5-4.924-4.5-8.994 0-2.538.703-5.16 1.93-7.191 1.334-2.209 3.083-3.425 4.927-3.425 1.843 0 3.593 1.216 4.927 3.425 1.226 2.032 1.93 4.653 1.93 7.191 0 4.07-1.795 7.626-4.501 8.994l.44 15.36h27.108c1.537 0 2.783-1.245 2.783-2.782v-9.243l6.64-4.046c1.314-.8 1.73-2.512.93-3.824"/>
        <path fill="#E84A31" d="M152.026 40.606c-.8-1.313-2.512-1.729-3.824-.929l-3.746 2.282V32.08c1.107.422 2.404.102 3.176-.877.952-1.207.745-2.956-.461-3.908L113.794.972c-1.01-.797-2.435-.797-3.446 0L76.671 27.515c-1.207.951-1.414 2.7-.463 3.908.55.696 1.364 1.06 2.187 1.06.335 0 .67-.067.99-.189v9.665l-3.747-2.282c-1.313-.8-3.025-.383-3.824.929-.8 1.312-.384 3.024.929 3.824l6.641 4.046v9.243c0 1.537 1.246 2.783 2.783 2.783h26.985l.387-14.69c-.85-.308-1.62-.772-2.293-1.38-.171-.156-.337-.321-.492-.493-1.379-1.5-2.133-3.452-2.124-5.492V27.044c0-.738.601-1.34 1.34-1.34.739 0 1.34.602 1.34 1.34v8.578h1.287v-8.578c0-.738.601-1.34 1.34-1.34.739 0 1.34.602 1.34 1.34v8.578h1.287v-8.578c0-.738.601-1.34 1.34-1.34.738 0 1.34.602 1.34 1.34v8.578h1.287v-8.578c0-.738.601-1.34 1.34-1.34.739 0 1.34.602 1.34 1.34V38.45c.01 2.039-.745 3.99-2.126 5.492-.76.84-1.719 1.484-2.783 1.87l.386 14.69h26.986c1.537 0 2.782-1.245 2.782-2.782v-9.244l6.642-4.045c1.312-.8 1.728-2.512.928-3.824"/>
        <g transform="translate(146.783 .19)">
            <mask id="prefix__b" fill="#fff">
                <use xlink:href="#prefix__a"/>
            </mask>
            <path fill="#52D176" d="M75.843 27.08L42.467.756c-1.01-.797-2.435-.797-3.446 0L5.344 27.298c-1.207.95-1.414 2.7-.463 3.907.55.697 1.364 1.061 2.187 1.061.336 0 .672-.068.993-.191v9.694l-3.746-2.283c-1.313-.8-3.025-.383-3.824.93-.8 1.312-.384 3.024.928 3.823l6.642 4.046v9.244c0 1.536 1.246 2.782 2.783 2.782h28.25l.278-6.777h-.125c-.488 0-.885-.397-.885-.884V26.4c0-.36.215-.68.546-.817.332-.138.71-.062.964.191l.379.38c4.9 4.902 7.386 10.667 7.387 17.137v9.359c0 .487-.397.884-.885.884h-2.27l.278 6.777h25.582c1.537 0 2.782-1.246 2.782-2.782V31.864c1.107.424 2.407.104 3.18-.876.952-1.207.745-2.957-.462-3.908" mask="url(#prefix__b)"/>
        </g>
        <path fill="#333" d="M29.205 101.512c4.461 0 7.485-2.065 7.485-6.637 0-4.535-2.987-6.784-7.596-6.784h-3.65v13.42h3.76zm-.074-17.034c6.637 0 11.467 3.908 11.467 10.397 0 6.527-4.83 10.25-11.357 10.25h-7.668V84.478h7.558zM46.68 84.478L61.76 84.478 61.76 88.092 50.552 88.092 50.552 92.811 58.995 92.811 58.995 96.239 50.552 96.239 50.552 101.512 61.945 101.512 61.945 105.125 46.68 105.125zM88.674 101.88c2.176 0 3.577-1.068 3.577-2.875 0-1.88-1.512-3.024-3.65-3.024h-4.83v5.9h4.903zm-.774-8.922c1.733 0 3.245-.885 3.245-2.655 0-1.438-1.106-2.58-3.208-2.58H83.77v5.235h4.13zm4.02 1.254c2.1.479 4.35 2.027 4.35 5.051 0 3.208-2.47 5.862-7.411 5.862h-8.96V84.478h8.739c3.797 0 6.378 2.47 6.378 5.272 0 2.618-1.659 3.872-3.097 4.314v.148zM112.75 92.958c-1.327-3.54-1.843-5.198-1.88-5.236h-.11l-1.991 5.457-1.365 3.724h6.82l-1.474-3.945zm-6.563 7.3l-1.806 4.867h-3.945l8.074-20.647h4.683l8.074 20.647h-4.018l-1.807-4.867h-9.255zM134.392 94.507c2.766 0 4.204-1.107 4.204-3.282 0-2.212-1.512-3.244-4.204-3.244h-3.723v6.526h3.723zm.222 2.986c-.664.037-1.733.037-2.14.037h-1.805v7.595h-3.872V84.478h7.411c5.272 0 8.333 2.433 8.333 6.526 0 3.171-1.807 5.051-4.24 5.752l5.088 8.37h-4.166l-4.61-7.633zM156.883 94.507c2.765 0 4.203-1.107 4.203-3.282 0-2.212-1.512-3.244-4.203-3.244h-3.724v6.526h3.724zm.22 2.986c-.663.037-1.732.037-2.138.037h-1.806v7.595h-3.872V84.478h7.411c5.273 0 8.333 2.433 8.333 6.526 0 3.171-1.807 5.051-4.24 5.752l5.088 8.37h-4.166l-4.61-7.633z"/>
        <mask id="prefix__d" fill="#fff">
            <use xlink:href="#prefix__c"/>
        </mask>
        <path fill="#333" d="M171.777 105.125L175.649 105.125 175.649 84.478 171.777 84.478zM192.608 101.992c4.056 0 7.042-2.913 7.042-7.19 0-4.277-2.986-7.19-7.042-7.19-4.056 0-7.005 2.913-7.005 7.19 0 4.277 2.95 7.19 7.005 7.19m0-17.92c6.268 0 10.988 4.499 10.988 10.73 0 6.268-4.72 10.729-10.988 10.729-6.23 0-10.914-4.461-10.914-10.73 0-6.23 4.683-10.729 10.914-10.729" mask="url(#prefix__d)"/>
        <path fill="#999" d="M21.388 114.928L22.996 114.928 22.996 121.999 27.22 121.999 27.22 123.5 21.388 123.5zM34.168 118.448c-.551-1.47-.765-2.158-.78-2.173h-.047l-.826 2.265-.567 1.546h2.832l-.612-1.638zm-2.725 3.031l-.75 2.02h-1.637l3.352-8.571h1.944l3.352 8.571h-1.669l-.75-2.02h-3.842zM52.87 121.173c-.703 1.485-2.142 2.495-4.086 2.495-2.664 0-4.577-1.868-4.577-4.44 0-2.57 1.913-4.469 4.561-4.469 1.791 0 3.368.857 4.072 2.526l-1.53.413c-.23-.352-.904-1.47-2.526-1.47-1.745 0-2.954 1.225-2.954 2.985 0 1.792 1.24 2.985 2.938 2.985 1.255 0 2.112-.642 2.572-1.438l1.53.413zM59.435 122.198c1.684 0 2.924-1.209 2.924-2.985 0-1.775-1.24-2.984-2.924-2.984s-2.908 1.209-2.908 2.984c0 1.776 1.224 2.985 2.908 2.985m0-7.439c2.602 0 4.561 1.868 4.561 4.454 0 2.602-1.96 4.455-4.56 4.455-2.588 0-4.532-1.853-4.532-4.455 0-2.586 1.944-4.454 4.531-4.454M74.71 121.173c-.704 1.485-2.143 2.495-4.087 2.495-2.664 0-4.577-1.868-4.577-4.44 0-2.57 1.913-4.469 4.561-4.469 1.791 0 3.368.857 4.072 2.526l-1.53.413c-.23-.352-.904-1.47-2.526-1.47-1.745 0-2.954 1.225-2.954 2.985 0 1.792 1.24 2.985 2.938 2.985 1.255 0 2.112-.642 2.572-1.438l1.53.413zM77.126 123.499L78.733 123.499 78.733 114.928 77.126 114.928zM87.763 123.5l-4.362-6.108h-.046c0 .015.03.934.03 1.944v4.163h-1.607v-8.571h1.654l4.362 5.985h.03c0-.016-.015-.857-.015-1.76v-4.225h1.608v8.571h-1.654zM96.823 118.448c-.551-1.47-.765-2.158-.78-2.173h-.047l-.826 2.265-.567 1.546h2.832l-.612-1.638zm-2.725 3.031l-.75 2.02H91.71l3.352-8.571h1.944l3.353 8.571H98.69l-.75-2.02h-3.842zM110.566 122c1.852 0 3.107-.858 3.107-2.756 0-1.883-1.24-2.816-3.153-2.816h-1.515v5.571h1.561zm-.03-7.072c2.755 0 4.76 1.622 4.76 4.316 0 2.71-2.005 4.255-4.715 4.255h-3.183v-8.571h3.137zM117.819 114.928L124.08 114.928 124.08 116.428 119.427 116.428 119.427 118.387 122.932 118.387 122.932 119.81 119.427 119.81 119.427 121.999 124.156 121.999 124.156 123.5 117.819 123.5zM135.588 116.428L135.588 123.499 133.981 123.499 133.981 116.428 131.073 116.428 131.073 114.928 138.481 114.928 138.481 116.428zM148.46 119.657c0 2.74-1.44 4.01-3.797 4.01s-3.78-1.27-3.78-4.01v-4.73h1.638v4.883c0 1.623.703 2.389 2.173 2.389 1.454 0 2.173-.766 2.173-2.389v-4.882h1.592v4.73zM163.06 123.5c0-.858.015-1.01.015-1.072h-.03c-.414.474-1.41 1.24-2.955 1.24-2.541 0-4.485-1.852-4.485-4.455 0-2.571 1.913-4.454 4.562-4.454 1.698 0 3.351.781 4.087 2.526l-1.47.398c-.398-.766-1.301-1.47-2.602-1.47-1.745 0-2.954 1.149-2.954 3 0 1.791 1.224 3 3.153 3 1.224 0 2.31-.612 2.663-1.086v-.888h-2.464v-1.423h3.918v4.683h-1.438zM167.328 114.928L173.588 114.928 173.588 116.428 168.935 116.428 168.935 118.387 172.44 118.387 172.44 119.81 168.935 119.81 168.935 121.999 173.665 121.999 173.665 123.5 167.328 123.5zM182.357 123.5l-4.362-6.108h-.046c0 .015.03.934.03 1.944v4.163h-1.607v-8.571h1.654l4.362 5.985h.03c0-.016-.015-.857-.015-1.76v-4.225h1.608v8.571h-1.654zM191.05 116.428L191.05 123.499 189.443 123.499 189.443 116.428 186.535 116.428 186.535 114.928 193.943 114.928 193.943 116.428zM196.466 114.928L202.727 114.928 202.727 116.428 198.074 116.428 198.074 118.387 201.579 118.387 201.579 119.81 198.074 119.81 198.074 121.999 202.804 121.999 202.804 123.5 196.466 123.5z" mask="url(#prefix__d)"/>
    </g>
</svg>
