<svg width="88" height="88" viewBox="0 0 88 88" fill="none" xmlns="http://www.w3.org/2000/svg">
<path d="M71.7156 28.8227L66.6178 24.3381L60.8241 22L46.5889 31.8515V49.6219L57.1368 75.0588H68.2833C72.1212 75.0588 75.0595 72.0648 75.0595 68.1453V37.067C75.0593 33.9748 73.8566 31.0093 71.7156 28.8227Z" fill="#C69275"/>
<path d="M66.3516 24.7698L71.3712 29.1857C73.4116 31.2765 74.5593 34.1103 74.5595 37.067V68.1453C74.5595 71.798 71.8358 74.5588 68.2833 74.5588H57.4708L47.0889 49.5223V32.1135L60.887 22.5645L66.3516 24.7698Z" stroke="#333333"/>
<path d="M66.0002 10.353H23.8111L21.4171 13.5882V19.9835C21.4171 22.57 20.0299 25.0507 18.2307 26.8795L16.2996 28.8424C14.1495 31.0279 12.9414 33.9923 12.9414 37.0832V67.5646C12.9414 71.8049 16.1824 75.0589 20.3541 75.0589H57.4981V37.3191C57.4981 34.2281 59.1087 31.028 61.259 28.8424L65.9729 24.3596L66.0002 10.353Z" fill="#DE9E79"/>
<path d="M60.9737 28.5423L60.9736 28.5422L60.9639 28.552C58.7561 30.7961 57.0841 34.0954 57.0841 37.3191V74.6449H20.3541C16.4145 74.6449 13.3554 71.5797 13.3554 67.5646V37.0832C13.3554 34.0999 14.5215 31.2401 16.5947 29.1327L18.5258 27.1699C20.3718 25.2935 21.8311 22.7144 21.8311 19.9835V13.7247L24.0198 10.767H65.5854L65.5592 24.1817L60.9737 28.5423Z" stroke="#333333" stroke-width="0.828038"/>
<path d="M21.6623 12.9414V19.3467C21.6623 21.9024 22.2409 23.3808 20.3896 25.1879C20.3896 25.1879 19.4629 26.3791 17.2505 28.5387C15.0382 30.6983 13.2376 33.1883 13.2376 36.2424L12.9414 66.3599C12.9414 70.5496 16.2799 74.1306 20.5723 74.1306C20.5723 74.1306 30.7662 74.1306 26.4738 74.1306C22.1815 74.1306 18.843 70.5496 18.843 66.3599V36.2424C18.843 33.1883 20.0858 30.2594 22.2983 28.0998L24.2852 26.1604C26.1367 24.3534 27.1767 21.9023 27.1767 19.3467V13.8951L21.6623 12.9414Z" fill="#AD7A5C"/>
<path d="M60.9145 28.48L60.9026 28.4917C58.6829 30.7479 56.9981 34.0679 56.9981 37.3191V74.5589H20.3541C16.4627 74.5589 13.4414 71.5329 13.4414 67.5646V37.0832C13.4414 34.1223 14.5987 31.2842 16.656 29.193L18.5871 27.2302C20.4428 25.3439 21.9171 22.7444 21.9171 19.9835V13.7531L24.0631 10.853H65.4992L65.4733 24.1447L60.9145 28.48Z" stroke="#333333" stroke-linejoin="round"/>
<path d="M22.6407 10.353C19.4932 10.353 16.8242 12.9968 16.8242 16.258V25.5363C16.8242 25.829 17.2936 25.9633 17.477 25.7408L19.6301 22.9235C20.2986 22.1123 21.5085 22.1123 22.177 22.9235L23.5765 25.2555C24.0697 26.0667 25.6535 26.1682 26.2759 25.0982L27.5535 22.9235C28.222 22.1123 29.4318 22.1123 30.1003 22.9235L31.5178 25.2555C32.0209 26.0667 33.5024 26.0667 34.0646 25.2555L35.4768 22.9235C36.1453 22.1123 37.3552 22.1123 38.0237 22.9235L39.4676 25.2555C40.136 26.0667 41.3459 26.0667 42.0144 25.2555L43.4001 22.9235C44.0686 22.1123 45.2785 22.1123 45.947 22.9235L47.1299 25.2555C47.6079 26.0667 49.0083 26.0667 49.6768 25.2555L51.3235 22.9235C51.992 22.1123 53.2018 22.1123 53.8703 22.9235L55.8407 25.7408C56.0241 25.9635 56.3757 25.829 56.3757 25.5363V21.4539C56.3757 18.8853 57.7537 16.4772 59.7687 14.9808L66.0007 10.353H22.6407Z" fill="#C69275"/>
<path d="M64.4887 10.853L59.4706 14.5794L59.7687 14.9808L59.4706 14.5794C57.3452 16.1578 55.8757 18.7075 55.8757 21.4539V24.9185L54.2801 22.6369C54.2725 22.6261 54.2646 22.6157 54.2562 22.6055C53.3877 21.5516 51.8061 21.5516 50.9376 22.6055C50.9297 22.6151 50.9222 22.6249 50.915 22.6351L49.2801 24.9504C49.0537 25.2162 48.693 25.3639 48.3319 25.3639C47.9675 25.3639 47.6951 25.2182 47.5676 25.013L46.3929 22.6973C46.3763 22.6646 46.3562 22.6338 46.3329 22.6055C45.4644 21.5516 43.8828 21.5516 43.0143 22.6055C42.998 22.6252 42.9833 22.6461 42.9703 22.6681L41.6058 24.9643C41.1401 25.4981 40.3378 25.4971 39.8734 24.9612L38.4488 22.6603C38.4369 22.6411 38.4238 22.6228 38.4095 22.6055C37.541 21.5516 35.9594 21.5516 35.091 22.6055C35.0756 22.6241 35.0616 22.6438 35.0491 22.6645L33.646 24.9815C33.48 25.2112 33.1506 25.3639 32.769 25.3639C32.38 25.3639 32.0771 25.207 31.9437 24.9936L30.5276 22.6638C30.5152 22.6434 30.5014 22.6239 30.4862 22.6055C29.6177 21.5516 28.0361 21.5516 27.1676 22.6055C27.1509 22.6258 27.1357 22.6475 27.1224 22.6702L25.8448 24.845L25.8437 24.8468C25.6371 25.2019 25.2659 25.3772 24.8712 25.3823C24.4592 25.3877 24.1344 25.2096 24.0043 24.9968C24.0041 24.9964 24.0039 24.9961 24.0037 24.9957L22.6057 22.6662C22.593 22.6449 22.5786 22.6246 22.5629 22.6055C21.6944 21.5516 20.1128 21.5516 19.2443 22.6055C19.2404 22.6102 19.2366 22.615 19.2329 22.6199L17.3242 25.1173V16.258C17.3242 13.2694 19.7729 10.853 22.6407 10.853H64.4887Z" stroke="#333333" stroke-linejoin="round"/>
<ellipse cx="56.9418" cy="69.8822" rx="10.3529" ry="10.3529" fill="#52D176"/>
<path fill-rule="evenodd" clip-rule="evenodd" d="M55.283 80.103C52.0838 78.3129 49.9256 74.9249 49.9256 71.0399C49.9256 65.2882 54.6563 60.6255 60.492 60.6255C60.907 60.6255 61.3165 60.6491 61.7191 60.695C60.2898 59.9503 58.665 59.5293 56.9418 59.5293C51.224 59.5293 46.5889 64.1645 46.5889 69.8822C46.5889 75.0354 50.3538 79.3092 55.283 80.103Z" fill="#22B573"/>
<path d="M66.7948 69.8822C66.7948 75.3239 62.3834 79.7352 56.9418 79.7352C51.5002 79.7352 47.0889 75.3239 47.0889 69.8822C47.0889 64.4406 51.5002 60.0293 56.9418 60.0293C62.3834 60.0293 66.7948 64.4406 66.7948 69.8822Z" stroke="#333333"/>
<path d="M61.0144 66.1881C61.2679 65.9362 61.6776 65.9375 61.9295 66.1909C62.162 66.4249 62.1788 66.792 61.9807 67.0452L61.9266 67.106L55.4156 73.5766C55.1837 73.8071 54.8204 73.8259 54.5671 73.6322L54.5061 73.5793L51.9583 71.0771C51.7034 70.8267 51.6997 70.417 51.9501 70.1621C52.1812 69.9267 52.548 69.9055 52.8037 70.1005L52.8651 70.1538L54.9566 72.2079L61.0144 66.1881Z" fill="#333333"/>
</svg>
