<svg width="26" height="32" viewBox="0 0 26 32" fill="none" xmlns="http://www.w3.org/2000/svg">
<path fill-rule="evenodd" clip-rule="evenodd" d="M3.19145 9.1665C3.24953 7.68703 4.46579 6.51758 5.9464 6.51758H21.7142C23.1927 6.51758 24.4081 7.68382 24.469 9.16107L25.1984 26.8509C25.2952 29.1998 23.4172 31.1569 21.0663 31.1569H6.27086C4.11883 31.1569 2.39837 29.3676 2.48279 27.2172L3.04791 12.8228L3.19145 9.1665Z" fill="#FBCC42"/>
<path fill-rule="evenodd" clip-rule="evenodd" d="M7.61402 6.40137C6.7324 6.83726 6.1155 7.7312 6.07904 8.77826L5.42352 27.606C5.36933 29.1622 6.25942 30.5259 7.57188 31.1568H4.6055C2.45423 31.1568 0.734072 29.3687 0.817355 27.219L1.5212 9.05171C1.57855 7.57166 2.79505 6.40137 4.27622 6.40137H7.61402Z" fill="#C9A333"/>
<path fill-rule="evenodd" clip-rule="evenodd" d="M24.9078 7.98856C24.8673 6.9436 24.001 6.11719 22.9462 6.11719H3.06308C2.00823 6.11719 1.14195 6.9436 1.10141 7.98856L0.29594 28.7501L0.293945 28.853C0.293945 30.3309 1.50246 31.5289 2.99323 31.5289H22.761L22.8742 31.5268C24.4993 31.4648 25.766 30.1086 25.7035 28.4975L24.9078 7.98856ZM3.06309 6.82307H22.9462L23.0513 6.82739C23.6751 6.87889 24.1719 7.38479 24.1963 8.01569L24.992 28.5246L24.9933 28.6503C24.9728 29.8159 24.0365 30.7761 22.8468 30.8214C22.8182 30.8225 22.7896 30.8231 22.761 30.8231H2.99324L2.87218 30.8195C1.83102 30.7575 1.00598 29.9007 1.00598 28.853L1.00745 28.7772L1.81292 8.01569L1.82132 7.91176C1.89721 7.29576 2.42622 6.82307 3.06309 6.82307Z" fill="#333333"/>
<path d="M12.9759 0.117188C15.7874 0.117188 17.6599 1.3589 18.7154 3.50399C19.3962 4.88756 19.6709 6.45528 19.7026 8.09698L19.7057 8.42627V11.0584C19.7057 11.2533 19.5477 11.4113 19.3528 11.4113C19.1795 11.4113 19.0354 11.2865 19.0055 11.1218L18.9998 11.0584V8.42627C18.9998 3.99248 17.4403 0.82307 12.9759 0.82307C10.4956 0.82307 8.86646 2.07889 7.89919 4.24094C7.53937 5.0452 7.29393 5.93228 7.14631 6.8442C7.05611 7.40144 7.01053 7.92327 7.00151 8.29439L6.99983 8.42627V11.0584C6.99983 11.2533 6.84181 11.4113 6.64689 11.4113C6.47362 11.4113 6.32952 11.2865 6.29963 11.1218L6.29395 11.0584V8.42627C6.29395 7.20396 6.57384 5.47487 7.25485 3.95267C8.32791 1.55415 10.192 0.117188 12.9759 0.117188Z" fill="#333333"/>
<path d="M8.84687 15.297L8.73889 15.2939C6.98793 15.3028 5.74332 17.6453 5.96689 20.6335C6.02001 21.34 6.39092 22.0465 6.96206 22.5434L7.08747 22.6465C7.47007 22.9432 7.6836 23.3903 7.66153 23.8537L7.31647 31.5292H10.2292L9.92211 23.8075C9.90447 23.3955 10.071 22.9978 10.3755 22.7106L10.471 22.6278C11.1032 22.1242 11.5145 21.3661 11.5687 20.6065C11.7631 17.8952 10.461 15.3961 8.84687 15.297Z" fill="#D8D8D8"/>
<path fill-rule="evenodd" clip-rule="evenodd" d="M8.73889 15.2939L8.84687 15.297C9.04562 15.3092 9.23963 15.3578 9.4267 15.4387C8.07086 15.9928 7.18737 18.0768 7.37866 20.6335C7.43177 21.34 7.80268 22.0465 8.37383 22.5434L8.49924 22.6465C8.88184 22.9432 9.09537 23.3903 9.0733 23.8537L8.72824 31.5292H7.31647L7.66153 23.8537C7.6836 23.3903 7.47007 22.9432 7.08747 22.6465L6.96206 22.5434C6.39092 22.0465 6.02001 21.34 5.96689 20.6335C5.74332 17.6453 6.98793 15.3028 8.73889 15.2939Z" fill="#9B9B9B"/>
<path fill-rule="evenodd" clip-rule="evenodd" d="M8.84687 15.297L8.73889 15.2939L8.62543 15.2978C6.93451 15.405 5.74818 17.7102 5.96689 20.6335C6.02001 21.34 6.39092 22.0465 6.96206 22.5434L7.17956 22.7238C7.50402 23.0178 7.68176 23.4289 7.66153 23.8537L7.31647 31.5292H10.2292L9.92211 23.8075L9.9223 23.6844C9.93914 23.317 10.1014 22.969 10.3755 22.7106L10.471 22.6278L10.5945 22.5238C11.1564 22.0231 11.5181 21.3155 11.5687 20.6065C11.7631 17.8952 10.461 15.3961 8.84687 15.297ZM8.64952 16.0039L8.73338 15.9998L8.82703 16.0026L8.91468 16.0122C9.99472 16.1833 11.0292 18.2597 10.8646 20.5561C10.8247 21.1159 10.5112 21.6933 10.0312 22.0757L9.91322 22.1772L9.80755 22.283C9.40124 22.7165 9.19248 23.2682 9.21687 23.8377L9.49432 30.8234H8.05432L8.3667 23.8854L8.36867 23.747C8.35635 23.1035 8.04487 22.4956 7.51999 22.0887L7.41054 21.9982L7.3083 21.9032C6.9446 21.5425 6.70625 21.0523 6.67078 20.5806C6.47977 18.0274 7.44713 16.1043 8.64952 16.0039Z" fill="#333333"/>
<path d="M19.705 15.294C19.4703 15.2944 19.4058 15.3934 19.3401 15.5792C19.3283 15.6128 19.3174 15.6513 19.3068 15.696L19.291 15.7679C19.2701 15.8705 19.2481 16.0055 19.2247 16.1739L19.1754 16.5558C19.1486 16.7777 19.1199 17.0362 19.0879 17.3421L18.7834 20.3754L18.7285 20.8373L18.7133 20.9438H18.0314L18.0022 20.7L17.9565 20.1996C17.9365 19.9514 17.915 19.6478 17.8872 19.2335L17.7788 17.6469C17.7653 17.4695 17.7529 17.3202 17.7399 17.1778L17.7032 16.8173C17.6889 16.6931 17.6744 16.5894 17.6596 16.5052C17.6445 16.4196 17.6286 16.3511 17.6091 16.2946C17.5934 16.249 17.575 16.2087 17.5478 16.169C17.4823 16.0732 17.384 16.0011 17.2371 16.0011C17.0929 16.0011 16.9943 16.0713 16.9283 16.1653C16.9001 16.2054 16.881 16.2462 16.8647 16.2923C16.8446 16.3494 16.8283 16.4184 16.813 16.5045C16.7979 16.5889 16.7834 16.6928 16.769 16.8171L16.717 17.3539L16.5181 20.2198C16.5078 20.3489 16.4978 20.4631 16.4874 20.5714L16.4517 20.8946L16.4446 20.9438H15.7267L15.7238 20.9255C15.6959 20.7766 15.6661 20.5666 15.6341 20.2976L15.5782 19.7896L15.2968 16.7535L15.2699 16.4922C15.2391 16.2048 15.2116 15.9868 15.1857 15.8315C15.1704 15.7398 15.1553 15.6677 15.1385 15.6107C15.1257 15.5674 15.1115 15.5298 15.091 15.4927C15.0288 15.3797 14.9373 15.294 14.7646 15.294C14.5696 15.294 14.4116 15.452 14.4116 15.6469V21.844C14.4116 22.483 14.9549 22.9911 15.6136 22.9911H15.6758C15.9642 22.9911 16.1837 23.2063 16.1712 23.4512L15.7842 31.1586C15.774 31.3602 15.9348 31.5292 16.1367 31.5292H18.3506C18.5517 31.5292 18.7122 31.3615 18.7032 31.1606L18.3608 23.4496C18.3509 23.2254 18.5344 23.027 18.7864 22.9955L18.8567 22.9911C19.1746 22.9911 19.4744 22.8722 19.6979 22.6631C19.9262 22.4496 20.0587 22.1572 20.0587 21.844V15.6469C20.0587 15.4517 19.9002 15.2936 19.705 15.294Z" fill="#D8D8D8"/>
<path fill-rule="evenodd" clip-rule="evenodd" d="M19.3401 15.5792C19.4058 15.3934 19.4703 15.2944 19.705 15.2939C19.9002 15.2936 20.0587 15.4517 20.0587 15.6469V20.9438H19.4431L19.414 20.7L19.3683 20.1996C19.3483 19.9514 19.3267 19.6478 19.299 19.2335L19.1906 17.6469C19.1771 17.4695 19.1647 17.3202 19.1516 17.1778L19.1292 16.9572C19.1454 16.8111 19.1607 16.6779 19.1754 16.5558L19.2247 16.1739C19.2481 16.0055 19.2701 15.8705 19.291 15.7679L19.3068 15.696C19.3174 15.6513 19.3283 15.6128 19.3401 15.5792ZM17.9431 20.0286C17.9268 19.8136 17.9089 19.5574 17.8872 19.2335L17.7788 17.6469C17.7653 17.4695 17.7529 17.3202 17.7399 17.1778L17.7032 16.8173C17.6889 16.6931 17.6744 16.5894 17.6596 16.5052C17.6445 16.4196 17.6286 16.3511 17.6091 16.2945C17.5934 16.249 17.575 16.2087 17.5478 16.169C17.4823 16.0732 17.384 16.0011 17.2371 16.0011C17.0929 16.0011 16.9943 16.0713 16.9283 16.1653C16.9001 16.2053 16.881 16.2462 16.8647 16.2923C16.8446 16.3494 16.8283 16.4184 16.813 16.5045C16.7979 16.5889 16.7834 16.6928 16.769 16.8171L16.7411 17.1047L16.99 19.7896L17.0459 20.2976C17.0779 20.5666 17.1077 20.7766 17.1355 20.9255L17.1384 20.9438H17.8563L17.8634 20.8946L17.8991 20.5713C17.9095 20.4631 17.9195 20.3489 17.9299 20.2198L17.9431 20.0286ZM15.8234 20.9438H15.7267L15.7238 20.9255C15.6959 20.7766 15.6661 20.5666 15.6341 20.2976L15.5782 19.7896L15.2968 16.7535L15.2699 16.4922C15.2391 16.2048 15.2116 15.9868 15.1857 15.8315C15.1704 15.7398 15.1553 15.6677 15.1385 15.6107C15.1257 15.5674 15.1115 15.5298 15.091 15.4927C15.0288 15.3797 14.9373 15.2939 14.7646 15.2939C14.5696 15.2939 14.4116 15.452 14.4116 15.6469V21.844C14.4116 22.4829 14.9549 22.9911 15.6136 22.9911H15.6758C15.9642 22.9911 16.1837 23.2063 16.1712 23.4512L15.7842 31.1586C15.774 31.3602 15.9348 31.5292 16.1367 31.5292H17.5484C17.3466 31.5292 17.1858 31.3602 17.1959 31.1586L17.583 23.4512C17.5954 23.2063 17.3759 22.9911 17.0876 22.9911H17.0253C16.3666 22.9911 15.8234 22.4829 15.8234 21.844V20.9438Z" fill="#9B9B9B"/>
<path fill-rule="evenodd" clip-rule="evenodd" d="M20.053 15.5834C20.023 15.4185 19.8786 15.2936 19.705 15.2939C19.4703 15.2944 19.4058 15.3934 19.3401 15.5792C19.3283 15.6128 19.3174 15.6513 19.3068 15.696L19.2751 15.8509C19.2698 15.8806 19.2643 15.9124 19.2588 15.9462L19.2247 16.1739L19.1754 16.5558L19.0879 17.3421L18.7834 20.3754L18.7285 20.8373L18.7133 20.9438H18.0314L18.0022 20.7L17.9565 20.1996L17.9389 19.972L17.7788 17.6469L17.7399 17.1778L17.7032 16.8173L17.6743 16.596L17.6596 16.5052C17.6445 16.4196 17.6286 16.3511 17.6091 16.2946C17.5934 16.249 17.575 16.2087 17.5478 16.169C17.4823 16.0732 17.384 16.0011 17.2371 16.0011C17.0929 16.0011 16.9943 16.0713 16.9283 16.1653C16.9001 16.2054 16.881 16.2462 16.8647 16.2923C16.8446 16.3494 16.8283 16.4184 16.813 16.5045C16.808 16.5326 16.803 16.5629 16.7981 16.5954L16.769 16.8171L16.717 17.3539L16.5181 20.2198L16.4874 20.5714L16.4517 20.8946L16.4446 20.9438H15.7267L15.7068 20.8289C15.6954 20.7595 15.6836 20.6805 15.6715 20.5919L15.6341 20.2976L15.5782 19.7896L15.2968 16.7535L15.2402 16.2277C15.221 16.0664 15.203 15.935 15.1857 15.8315L15.1704 15.7462C15.1601 15.6934 15.1497 15.6487 15.1385 15.6107C15.1257 15.5674 15.1115 15.5298 15.091 15.4927C15.0288 15.3797 14.9373 15.2939 14.7646 15.2939C14.5696 15.2939 14.4116 15.452 14.4116 15.6469V21.844L14.4161 21.9437C14.4691 22.535 14.9895 22.9911 15.6136 22.9911H15.6758L15.7464 22.9955C15.9991 23.0272 16.1826 23.2267 16.1712 23.4512L15.7842 31.1586L15.7861 31.218C15.8066 31.3923 15.955 31.5292 16.1367 31.5292H18.3506L18.416 31.5232C18.5853 31.4916 18.7112 31.3392 18.7032 31.1606L18.3608 23.4496L18.3635 23.3832C18.3882 23.1874 18.5596 23.0238 18.7864 22.9955L18.975 22.9856C19.2484 22.96 19.5023 22.8461 19.6979 22.6631C19.9262 22.4496 20.0587 22.1572 20.0587 21.844V15.6469L20.053 15.5834ZM17.2217 20.2763L17.2366 20.0523L17.2455 20.1624L17.2992 20.7642L17.405 21.6497H19.3256L19.3528 21.4556V21.844L19.3471 21.9108C19.3321 21.9986 19.2873 22.0807 19.2157 22.1476C19.1221 22.2352 18.9943 22.2852 18.8567 22.2852L18.7428 22.2909L18.6369 22.308C18.0464 22.4264 17.6301 22.9058 17.6556 23.4809L17.9813 30.8234H16.5074L16.8762 23.4866L16.8769 23.3872C16.8537 22.7649 16.314 22.2852 15.6758 22.2852H15.6136L15.5387 22.2803C15.2955 22.2478 15.1175 22.0594 15.1175 21.844V21.613L15.1238 21.6497H17.0557L17.1503 20.9956L17.189 20.6489L17.2217 20.2763Z" fill="#333333"/>
</svg>
