<svg width="68" height="68" viewBox="0 0 68 68" fill="none" xmlns="http://www.w3.org/2000/svg">
<g id="illustrations/place">
<g id="Group">
<path id="Path" d="M44.4533 40H23.5439H16.6043C16.2083 40 16.0075 40.34 15.8857 40.7107L10.0211 58.2921C9.89663 58.66 10.3464 59 10.7397 59H57.2575C57.6536 59 58.1034 58.6627 57.9789 58.2921L52.1143 40.7107C51.9898 40.34 51.789 40 51.3929 40H44.4533Z" fill="#52D176"/>
<path id="Path_2" d="M13.9432 47.9558L15.2866 44H30.4508L32 48.7436L22.4996 59H16.197L26.5261 48.5278C26.7224 48.3046 26.6483 47.9558 26.2816 47.9558H13.9432Z" fill="#F8F2F0"/>
<path id="Path_3" d="M37.1909 48H54L52.7116 44H40.4619L37 45.686L37.1909 48Z" fill="#F8F2F0"/>
<path id="Path_4" d="M52.6483 43.6889L51.7051 40.7006C51.5498 40.2577 51.3867 40 50.9574 40H45C45.9316 40.9298 46.363 41.8295 47 43.6889H52.6483Z" fill="#22B573"/>
<path id="Path_5" d="M47.7975 48H53.9999L52.6901 44L47.0422 44C47.5269 45.3014 47.7479 46.5964 47.7975 48Z" fill="#E0D2CE"/>
<path id="Path_6" d="M56.2634 59C56.6549 59 57.1029 58.6477 56.979 58.2665L53.6834 48C53.6834 48 47.6984 48 47.6984 48C47.6984 51.8309 45.9778 56.1582 43 59H56.2634Z" fill="#22B573"/>
<path id="Path_7" fill-rule="evenodd" clip-rule="evenodd" d="M13.4728 48.0055L14.7741 44H31.4521L33 48.7436L23.5078 59H16.197L26.5171 48.5278L26.5605 48.4697C26.699 48.2489 26.6088 47.9558 26.2729 47.9558L13.4728 48.0055ZM30.7268 45H15.5008L14.8518 47L26.2691 46.9558L26.4066 46.9614C27.5701 47.0576 27.9869 48.3706 27.2682 49.1881L18.5858 58H23.0708L31.8678 48.495L30.7268 45Z" fill="#333333"/>
<path id="Path_8" fill-rule="evenodd" clip-rule="evenodd" d="M54.4341 48L52.8725 43H39.5412L36 45.1075L36.1953 48H54.4341ZM39.815 44H52.136L53.074 47H37.13L37.038 45.652L39.815 44Z" fill="#333333"/>
<path id="Path_9" fill-rule="evenodd" clip-rule="evenodd" d="M15.8857 40.7107C16.0075 40.34 16.2083 40 16.6043 40H51.3929C51.789 40 51.9898 40.34 52.1143 40.7107L57.9789 58.2921C58.1034 58.6627 57.6536 59 57.2575 59H10.7397C10.3464 59 9.89663 58.66 10.0211 58.2921L15.8857 40.7107ZM51.157 41H16.844L11.173 58H56.828L51.157 41Z" fill="#333333"/>
<path id="Shape" fill-rule="evenodd" clip-rule="evenodd" d="M38.7133 48.4236C37.9303 49.2874 37.1385 50.1428 36.3527 50.9532C35.6749 51.6511 35.3375 52 35 52C34.6626 52 34.3252 51.6511 33.6474 50.9532C32.8586 50.1428 32.0668 49.2847 31.2809 48.4179C30.7622 47.8448 30.2458 47.2672 29.7351 46.6962C29.4261 46.3505 29.1191 46.0073 28.8151 45.6688C28.5113 45.2777 28.2016 44.8866 27.8919 44.4982C27.684 44.2368 27.4753 43.9755 27.2665 43.714C26.2255 42.4104 25.1808 41.1022 24.2049 39.7568C22.6302 37.5901 21.2337 35.3193 20.3105 32.8037C16.0801 21.2668 22.3847 10.0535 35 10C47.6152 10.0535 53.92 21.2668 49.6895 32.8037C48.7662 35.3193 47.3698 37.5901 45.798 39.7568C44.815 41.11 43.7649 42.4238 42.7173 43.7346C42.51 43.9938 42.3029 44.253 42.0964 44.5123C41.7897 44.8978 41.4858 45.2833 41.1849 45.6688C40.9643 45.9152 40.7419 46.1641 40.5181 46.4146C39.924 47.0794 39.3202 47.7552 38.7133 48.4236ZM35.6319 34.4444C40.1126 34.4444 44.6 30.9719 44.6 25.4282C44.6 19.8846 41.1716 15.4444 35.6319 15.4444C30.0921 15.4444 25.6 19.9397 25.6 25.4834C25.6 31.0271 31.1511 34.4444 35.6319 34.4444Z" fill="#FCE181"/>
<path id="Path_10" d="M35 35C38.1102 35 40.8884 33.578 42.7224 31.3519C44.1445 29.6238 45 27.412 45 25C45 21.163 42.8369 17.8298 39.6638 16.153C38.2704 15.4177 36.6853 15 35 15C29.4779 15 25 19.4778 25 25C25 30.5221 29.4779 35 35 35Z" fill="white"/>
<path id="Path_11" d="M49.3742 32.4941C53.0905 21.7678 47.6351 11.7535 37.3339 10.3326C38.3112 12.4049 38.8538 13.8821 39.487 16.4205C42.2785 17.9816 44.7136 20.9666 44.7136 25.2472C44.7136 27.4016 44.0655 28.9034 42.7189 30.6663C42.3203 31.1881 41.494 32.087 41.004 32.4941C40.8416 34.7433 40.5072 37.3208 40.0887 39.3762C39.6263 41.6395 39.0206 43.765 38.2883 45.7165C38.2415 45.8344 38.1975 45.9552 38.1507 46.0731C37.4488 47.8842 36.9029 49.5398 36 51C36.1211 50.8708 36.2588 50.722 36.4156 50.5507C36.7863 50.1459 37.0992 49.7764 37.4709 49.3537C37.8418 48.9319 38.2196 48.479 38.588 48.0485C39.3753 47.1303 40.1008 46.2314 40.8606 45.3329C41.1441 44.9482 41.7877 44.0723 42.0767 43.6876C43.2549 42.1207 44.3281 41.2016 45.4375 39.5843C46.9185 37.4222 48.5042 35.0043 49.3742 32.4941Z" fill="#FBCC42"/>
<path id="Path_12" d="M42.9114 30.4043C44.2133 28.6787 44.5067 26.851 44.5067 24.3065C44.5067 20.5981 42.3581 18.1156 39.5121 16.5632C40.553 20.6422 41.5445 24.2037 40.9859 32.7037C41.4523 32.2895 42.5291 30.9129 42.9114 30.4043Z" fill="#ECECEC"/>
<path id="Path_13" fill-rule="evenodd" clip-rule="evenodd" d="M49.6895 32.8037C53.92 21.2668 47.6152 10.0535 35 10C22.3847 10.0535 16.0801 21.2668 20.3105 32.8037C21.2337 35.3193 22.6302 37.5901 24.2049 39.7568C24.9079 40.7259 25.6466 41.6758 26.3938 42.6185L28.3557 45.0825L28.8151 45.6688C29.1191 46.0073 29.4261 46.3505 29.7351 46.6962C30.2458 47.2672 30.7622 47.8448 31.2809 48.4179C32.0668 49.2847 32.8586 50.1428 33.6474 50.9532L33.6561 50.9622C34.9098 52.2531 34.994 52.3397 36.0907 51.2221L36.9429 50.3376C37.5339 49.7146 38.1261 49.0715 38.7133 48.4236C38.9918 48.1169 39.2697 47.8086 39.5463 47.5005L41.1849 45.6688C41.4858 45.2833 41.7897 44.8978 42.0964 44.5123C42.3029 44.253 42.51 43.9938 42.7173 43.7346C43.7649 42.4238 44.815 41.11 45.798 39.7568C47.3698 37.5901 48.7662 35.3193 49.6895 32.8037ZM34.6583 11.0045L35 10.999L35.3417 11.0045C46.7043 11.2529 52.8252 21.3477 48.7506 32.4595C47.9476 34.6474 46.7362 36.7605 44.9886 39.1696C44.3885 39.9957 43.83 40.7255 42.9564 41.8291L40.8521 44.4728L40.3966 45.0535L37.973 47.7513C37.3555 48.4326 36.7926 49.0422 36.2603 49.6041L35.6348 50.2571L35.1322 50.7666L34.999 50.89L34.8085 50.7082L34.1296 50.0136C33.814 49.686 33.489 49.3419 33.1419 48.9683L32.0217 47.7462L29.5591 45.0006C29.4426 44.8486 29.3108 44.6794 29.1633 44.492L27.6516 42.5934C26.4173 41.0446 25.7394 40.1692 25.0144 39.1697L24.6719 38.6923C23.1062 36.4818 21.9994 34.5032 21.2493 32.4592C17.1749 21.3477 23.2957 11.2529 34.6583 11.0045Z" fill="#333333"/>
<path id="Path_14" fill-rule="evenodd" clip-rule="evenodd" d="M45 25C45 19.4778 40.5221 15 35 15C29.4779 15 25 19.4778 25 25C25 30.5222 29.4779 35 35 35C40.5221 35 45 30.5222 45 25ZM26 25C26 20.0301 30.0301 16 35 16C39.9699 16 44 20.0301 44 25C44 29.9699 39.9699 34 35 34C30.0301 34 26 29.9699 26 25Z" fill="#333333"/>
</g>
</g>
</svg>
