<svg width="68" height="68" viewBox="0 0 68 68" fill="none" xmlns="http://www.w3.org/2000/svg">
<g id="illustrations/shop_bag">
<g id="Group">
<path id="Rectangle" fill-rule="evenodd" clip-rule="evenodd" d="M18.4604 21.4777C18.3178 20.8405 18.8025 20.2354 19.4554 20.2354H58.6297C59.3086 20.2354 59.7979 20.8863 59.6092 21.5384L54.0024 40.911C53.8762 41.347 53.4769 41.6471 53.023 41.6471H23.7913C23.314 41.6471 22.9006 41.316 22.7963 40.8502L18.4604 21.4777Z" fill="#FCE181"/>
<path id="Combined Shape" fill-rule="evenodd" clip-rule="evenodd" d="M45.8857 41.6471H53.023C53.4769 41.6471 53.8762 41.347 54.0024 40.911L59.6092 21.5384C59.7979 20.8863 59.3086 20.2354 58.6298 20.2354H51.4925C52.1714 20.2354 52.6606 20.8863 52.4719 21.5384L46.8652 40.911C46.739 41.347 46.3397 41.6471 45.8857 41.6471Z" fill="#FBCC42"/>
<path id="Rectangle_2" fill-rule="evenodd" clip-rule="evenodd" d="M20.2217 28.3922H57.9472L56.1302 34.5099H21.5548L20.2217 28.3922Z" fill="#4D4E59"/>
<path id="Combined Shape_2" fill-rule="evenodd" clip-rule="evenodd" d="M48.7219 34.5099H55.9079L57.7249 28.3922H50.4928L48.7219 34.5099Z" fill="#42434D"/>
<path id="Rectangle_3" fill-rule="evenodd" clip-rule="evenodd" d="M18.4604 21.4777C18.3178 20.8405 18.8025 20.2354 19.4554 20.2354H58.6298C59.3086 20.2354 59.7979 20.8863 59.6092 21.5384L54.0024 40.911C53.8762 41.347 53.4769 41.6471 53.023 41.6471H23.7913C23.314 41.6471 22.9006 41.316 22.7963 40.8502L18.4604 21.4777Z" stroke="#333333" stroke-linejoin="round"/>
<circle id="Oval Copy" cx="28.3785" cy="55.9019" r="3.57843" fill="#4D4E59" stroke="#333333"/>
<circle id="Oval Copy 4" cx="48.7707" cy="55.9019" r="3.57843" fill="#4D4E59" stroke="#333333"/>
<path id="Rectangle Copy" d="M54.313 41.6471H23.6131C23.4449 41.6471 23.278 41.6558 23.1139 41.6926C22.3736 41.8587 20.2217 42.5692 20.2217 45.2157C20.2217 47.8622 22.3736 48.5727 23.1139 48.7388C23.278 48.7756 23.4449 48.7843 23.6131 48.7843H55.908" stroke="#333333" stroke-linecap="round" stroke-linejoin="round"/>
<path id="Path 8 Copy" d="M8 11.0588H16.0665L22.9747 41.6471" stroke="#333333" stroke-linecap="round" stroke-linejoin="round"/>
<path id="Path 2" d="M20.2217 28.3921H57.725" stroke="#333333"/>
<path id="Path 2_2" d="M21.2412 34.5098H55.9079" stroke="#333333"/>
<rect id="Rectangle_4" x="24.3" y="8" width="13.2549" height="12.2353" fill="#52D176" stroke="#333333" stroke-linejoin="round"/>
<rect id="Rectangle_5" x="40.6138" y="13.098" width="13.2549" height="7.13725" fill="#E84A31" stroke="#333333" stroke-linejoin="round"/>
</g>
</g>
</svg>
