<svg width="68" height="68" viewBox="0 0 68 68" fill="none" xmlns="http://www.w3.org/2000/svg">
<g id="illustrations/user">
<g id="Group">
<path id="Path" d="M25.4296 25.388C25.4173 24.6104 25.447 24.1337 25.447 24.1337C25.447 24.1337 29.0739 21.3466 31.0165 16.5603C31.0165 16.5603 34.5554 21.6086 43.023 23.9111C43.023 23.9111 43.0577 24.4188 43.048 25.2421C43.771 24.8947 45.0616 25.4231 45.8783 26.1431C49.9964 13.4297 38.0901 9.6817 35.0142 9.50041C31.7969 9.31063 29.8385 11.7752 29.8385 11.7752C26.94 9.64256 23.7299 12.2016 22.5917 16.1822C21.8949 18.6187 22.3846 22.8311 22.8697 25.7328C23.701 24.8866 24.6735 25.0357 25.4296 25.388Z" fill="#976F5F"/>
<path id="Path_2" fill-rule="evenodd" clip-rule="evenodd" d="M30.8446 10.2292C32.0629 9.39052 33.4723 8.91887 35.0431 9.01152C37.2531 9.14178 40.6924 10.5519 43.1407 12.7299L43.4186 12.9846C46.9068 16.2777 48.1162 20.8803 46.221 26.731C46.1124 27.0664 45.6956 27.1806 45.4312 26.9475C44.3296 25.9764 43.5792 25.5303 43.2602 25.6836L43.1839 25.713C42.8767 25.8031 42.5543 25.5717 42.5583 25.2364C42.5628 24.8476 42.5579 24.5015 42.5469 24.2067L42.5489 24.2858L42.3064 24.2174C39.9747 23.5316 37.8898 22.605 36.0429 21.4921L35.5862 21.21C34.0899 20.2632 32.8418 19.2474 31.8298 18.2294C31.6161 18.0144 31.4221 17.8083 31.2473 17.6128L31.1435 17.4943L31.0004 17.804C30.5818 18.6724 30.0973 19.5047 29.5575 20.2995L29.227 20.7719C28.4696 21.8236 27.6582 22.749 26.846 23.541C26.5608 23.8191 26.2954 24.0611 26.0564 24.2659L25.9262 24.3749C25.9192 24.5939 25.9154 24.8354 25.9165 25.1034L25.9193 25.3803C25.9251 25.7418 25.5505 25.9847 25.2228 25.832C24.4426 25.4686 23.7798 25.5053 23.2191 26.0761C22.9386 26.3617 22.4526 26.2084 22.3866 25.8136C21.6984 21.6969 21.5036 18.2055 22.1207 16.0476C23.3446 11.7677 26.6593 9.37398 29.6283 11.0556L29.7564 11.1318L29.9199 10.9719C30.1161 10.7863 30.3531 10.5855 30.6297 10.3821L30.8446 10.2292ZM34.9968 9.98995L34.7017 9.97986C33.4812 9.96985 32.3756 10.3645 31.4 11.0361C31.0618 11.2689 30.7651 11.5184 30.5131 11.7669C30.4538 11.8254 30.4026 11.8781 30.3595 11.9239L30.2219 12.08C30.058 12.2862 29.7604 12.3259 29.5482 12.1698C27.1387 10.397 24.1946 12.3583 23.0626 16.3169C22.5395 18.1459 22.6653 21.2013 23.2178 24.8099L23.2264 24.8638L23.2643 24.8446C23.785 24.592 24.3504 24.5545 24.9387 24.6953L24.9473 24.3499L24.9581 24.1033C24.9669 23.9621 25.0363 23.8316 25.1485 23.7454C25.1762 23.7242 25.2205 23.6887 25.28 23.6394L25.5914 23.3717C25.7686 23.2145 25.9597 23.037 26.1621 22.8397C26.9355 22.0855 27.7097 21.2025 28.4321 20.1994C29.2869 19.0125 30.0109 17.7357 30.5627 16.3762C30.7086 16.0166 31.1948 15.9615 31.4176 16.2793C31.4332 16.3016 31.4564 16.3331 31.4873 16.3735L31.6783 16.6123C31.9083 16.8906 32.1899 17.2021 32.5246 17.5388C33.4864 18.5063 34.6777 19.4759 36.11 20.3822C38.1374 21.6651 40.4792 22.7119 43.1515 23.4385C43.3528 23.4932 43.4974 23.6695 43.5116 23.8777C43.5153 23.9316 43.5206 24.0304 43.5258 24.1702L43.5373 24.662L43.6551 24.6761C44.1442 24.75 44.6851 25.0679 45.3585 25.6043L45.5033 25.7219L45.6087 25.3398C46.8778 20.4984 45.7991 16.7123 42.9573 13.901L42.7462 13.6969C40.4566 11.5354 37.0545 10.1114 34.9968 9.98995Z" fill="#333333"/>
<path id="Path_3" d="M29.1021 36.9186V41.035C29.1021 43.6302 31.2145 45.7349 33.9481 45.7349C36.6818 45.7349 38.898 43.6309 38.898 41.0358V36.9186C37.6571 37.8925 36.0515 38.5094 33.9732 38.5161C31.8729 38.5224 30.3547 37.9025 29.1021 36.9186Z" fill="#FFBD86"/>
<path id="Path_4" d="M45.2567 26.1211C44.4986 24.8836 43.5502 25.0559 42.839 25.4746C42.8227 27.1511 42.6592 30.0901 41.8368 32.7893C45.4163 34.1985 46.508 28.1623 45.2567 26.1211Z" fill="#FFBD86"/>
<path id="Path_5" d="M25.1313 25.454C24.4234 25.0507 23.4915 24.904 22.744 26.1212C21.4917 28.1608 22.5828 34.1902 26.1632 32.7922C25.3236 30.0697 25.1529 27.1063 25.1313 25.454Z" fill="#FFBD86"/>
<path id="Path_6" d="M40.8572 32.751C44.532 33.9881 46.1726 30.3844 45.665 27.1227C45.3443 29.339 43.9294 31.5328 41.3802 30.9989C41.2355 31.5846 41.0632 32.1727 40.8572 32.751Z" fill="#FFA664"/>
<path id="Path_7" d="M22.316 27.1227C21.8787 29.8458 23.4532 34.01 27.1428 32.7777C26.9336 32.197 26.7578 31.6064 26.6098 31.0183C24.056 31.5421 22.6385 29.3437 22.316 27.1227Z" fill="#FFA664"/>
<path id="Path_8" d="M29.1021 39.0393C30.3551 40.1998 31.8725 40.8443 33.9732 40.8369C36.0515 40.829 37.6571 40.1011 38.898 38.9525V36.9186C37.6575 38.0663 36.0515 38.7934 33.9732 38.8013C31.8729 38.8091 30.3547 38.1659 29.1021 37.0063V39.0393Z" fill="#FFA664"/>
<path id="Path_9" fill-rule="evenodd" clip-rule="evenodd" d="M39.3878 35.9115V41.0358C39.3878 43.9073 36.9468 46.2247 33.9482 46.2247C30.9664 46.2247 28.6123 43.9227 28.6123 41.035V35.911L29.4047 36.5334C30.677 37.5328 32.115 38.0319 33.9716 38.0263C35.8342 38.0203 37.3603 37.5028 38.5956 36.5333L39.3878 35.9115ZM38.4082 37.8492L38.151 37.9978C36.9545 38.6548 35.5641 39.0007 33.9747 39.0059C32.3855 39.0106 31.0456 38.6765 29.8568 38.0114L29.5919 37.8551V41.035C29.5919 43.3078 31.3918 45.1348 33.7338 45.2403L33.9482 45.2451C36.4168 45.2451 38.4082 43.3546 38.4082 41.0358V37.8492Z" fill="#333333"/>
<path id="Path_10" d="M54.4671 49.8715C51.7683 47.6615 38.908 40.837 38.908 40.837C38.908 43.582 36.7107 45.8074 34.0003 45.8074C31.2899 45.8074 29.1954 43.582 29.1954 40.837C29.1954 40.837 16.2322 47.6615 13.5335 49.8715C10.8343 52.0816 10.4899 57.4901 10.4899 57.4901H57.5103C57.5103 57.4901 57.1658 52.0816 54.4671 49.8715Z" fill="#E8FAF2"/>
<path id="Path_11" fill-rule="evenodd" clip-rule="evenodd" d="M42.3519 25.1929L42.5905 25.0524C43.7244 24.3849 44.866 24.5457 45.6742 25.8651C46.3846 27.0239 46.4307 29.1925 45.8198 30.913C45.0886 32.9718 43.5785 34.0014 41.6573 33.245L41.2363 33.0793L41.3682 32.6465C42.0386 30.4463 42.3253 27.9243 42.3492 25.4698L42.3519 25.1929ZM44.8967 30.5852C45.4165 29.1213 45.3768 27.2542 44.839 26.3769C44.3953 25.6527 43.9219 25.5082 43.3228 25.7728L43.3182 26.0665C43.2612 28.2226 43.0022 30.4071 42.4602 32.3949L42.4411 32.4605L42.478 32.4698C43.5214 32.6694 44.323 32.0481 44.8267 30.7719L44.8967 30.5852Z" fill="#333333"/>
<path id="Path_12" fill-rule="evenodd" clip-rule="evenodd" d="M22.1798 30.9096C21.569 29.1895 21.6156 27.0228 22.3267 25.8648L22.4281 25.7081C23.2187 24.5516 24.2974 24.415 25.3738 25.0283L25.6174 25.1671L25.6332 26.0152C25.7009 28.29 26.0013 30.605 26.6313 32.6478L26.7655 33.0828L26.3414 33.2484C24.4201 33.9986 22.9106 32.9672 22.1798 30.9096ZM24.6541 26.0477L24.6478 25.7581L24.535 25.7158C24.0058 25.5352 23.5714 25.7098 23.1614 26.3774C22.6234 27.2536 22.5833 29.1185 23.1029 30.5818C23.6007 31.9834 24.4292 32.6768 25.523 32.4708L25.5569 32.4624L25.5375 32.3965C24.9852 30.3981 24.7183 28.2054 24.6541 26.0477Z" fill="#333333"/>
<path id="Path_13" d="M42.79 24.161C42.79 24.161 43.7523 38.8453 34.0452 38.8777C24.3377 38.9102 25.2036 24.2198 25.2036 24.2198C25.2036 24.2198 29.04 21.2923 30.9449 16.3472C30.9449 16.3472 34.4876 21.7821 42.79 24.161Z" fill="#FED2A4"/>
<path id="Path_14" d="M34.0452 37.0936C26.4836 37.119 25.3376 28.1502 25.2004 24.184C25.1531 25.2241 24.7066 38.9093 34.0452 38.8778C43.0595 38.8474 42.8731 26.0976 42.8005 24.2773C42.6655 28.3173 41.5112 37.0687 34.0452 37.0936Z" fill="#FFBD86"/>
<path id="Path_15" d="M10.7411 55.5309C10.5384 56.6748 10.4899 57.4901 10.4899 57.4901H57.5103C57.5103 57.4901 57.4621 56.6748 57.2594 55.5309H10.7411Z" fill="#ABDEC7"/>
<path id="Path_16" fill-rule="evenodd" clip-rule="evenodd" d="M28.2025 20.3133C29.1403 19.03 29.9197 17.646 30.4878 16.1711C30.6314 15.7983 31.137 15.745 31.3552 16.0797C31.3939 16.1391 31.4788 16.2595 31.611 16.4322L31.7516 16.6122C31.947 16.8576 32.1744 17.1243 32.4344 17.4079C33.3675 18.4256 34.5186 19.4451 35.8969 20.3977C37.9206 21.7962 40.2583 22.9261 42.925 23.6902C43.1237 23.7471 43.2653 23.9227 43.2788 24.129L43.3046 24.8642C43.3432 26.9232 43.1436 29.3258 42.528 31.6451C41.2598 36.4228 38.5514 39.3525 34.0469 39.3676C29.5336 39.3826 26.8046 36.4605 25.5081 31.6769C24.8292 29.1722 24.6361 26.5781 24.7041 24.4439L24.7146 24.1909C24.723 24.0486 24.7931 23.9169 24.9065 23.8304C24.9528 23.795 25.0456 23.7204 25.1782 23.6078L25.3513 23.4582C25.5292 23.3018 25.7211 23.1254 25.9242 22.9294C26.7005 22.1805 27.4775 21.3054 28.2025 20.3133ZM31.1476 17.4225L31.0682 17.3238L30.9693 17.548C30.4279 18.7259 29.7605 19.8415 28.9934 20.8913C28.2333 21.9313 27.4193 22.8482 26.6044 23.6344C26.3183 23.9104 26.0521 24.1507 25.8124 24.3544L25.6833 24.4621L25.6731 24.9226C25.649 26.7394 25.823 28.8668 26.3299 30.9404L26.4536 31.4207C27.6467 35.8226 30.0548 38.4013 34.0436 38.388C38.0246 38.3747 40.4143 35.7897 41.5812 31.3938C42.2117 29.0182 42.3874 26.5264 42.3137 24.4634L42.3148 24.5297L42.1053 24.4679C39.7419 23.7358 37.6318 22.7217 35.7662 21.4913L35.34 21.2036C33.899 20.2077 32.6933 19.1397 31.7124 18.0699C31.5054 17.8441 31.3172 17.6277 31.1476 17.4225Z" fill="#333333"/>
<path id="Path_17" fill-rule="evenodd" clip-rule="evenodd" d="M34.0002 45.3176C36.4387 45.3176 38.4182 43.3129 38.4182 40.837C38.4182 40.4677 38.8113 40.2313 39.1376 40.4044L40.8821 41.3394L43.5283 42.7784C44.7746 43.4618 46.0025 44.1435 47.1748 44.8052L48.7065 45.677C51.4935 47.2773 53.5098 48.5206 54.5403 49.3059L54.7773 49.4926C55.766 50.3023 56.5136 51.5269 57.0642 53.0525C57.4127 54.0182 57.6618 55.0478 57.8293 56.0766C57.8878 56.4363 57.9321 56.7706 57.964 57.0713C57.9756 57.1807 57.9842 57.2719 57.9902 57.3433L57.999 57.459C58.017 57.7411 57.793 57.9799 57.5102 57.9799H10.4898C10.2071 57.9799 9.98304 57.7411 10.001 57.459C10.0057 57.3856 10.0167 57.2536 10.0361 57.0713L10.0623 56.8396C10.091 56.6019 10.1268 56.3464 10.1707 56.0766C10.3382 55.0478 10.5874 54.0182 10.936 53.0525C11.4866 51.5269 12.2343 50.3022 13.2231 49.4926C14.088 48.7843 15.9573 47.6096 18.616 46.0695L20.0101 45.2694L21.7203 44.3048C23.2184 43.4667 24.7888 42.6045 26.3592 41.754L26.7492 41.5431L28.8726 40.4043C29.1988 40.2313 29.5919 40.4678 29.5919 40.837C29.5919 43.315 31.5639 45.3176 34.0002 45.3176ZM39.3408 41.6227L39.3336 41.6811C38.9326 44.2948 36.6985 46.2972 34.0002 46.2972C31.3033 46.2972 29.076 44.2961 28.6762 41.6815L28.6681 41.6227L27.5918 42.2016L24.9505 43.6368C23.7066 44.3183 22.4814 44.9982 21.3121 45.6578L20.4946 46.1209C17.1476 48.0253 14.7925 49.4735 13.8437 50.2505C13.0129 50.9308 12.3532 52.0113 11.8574 53.385C11.5315 54.2881 11.2961 55.2607 11.1376 56.234C11.1099 56.4045 11.0855 56.5689 11.0644 56.726L11.0296 57.0003H56.9695L56.9357 56.726L56.9015 56.485L56.8624 56.234C56.704 55.2606 56.4686 54.288 56.1427 53.385C55.647 52.0112 54.9874 50.9308 54.1567 50.2505C53.3095 49.5567 51.3423 48.3279 48.5497 46.717L46.6933 45.6583C45.5246 44.9986 44.3001 44.3187 43.0569 43.6371L41.1827 42.6156L39.3408 41.6227Z" fill="#333333"/>
</g>
</g>
</svg>
