<svg width="68" height="68" viewBox="0 0 68 68" fill="none" xmlns="http://www.w3.org/2000/svg">
<g id="illustrations/Verification">
<rect id="Rectangle" x="20" y="8" width="28" height="48" rx="4" fill="#F1F5F6"/>
<path id="Combined Shape" fill-rule="evenodd" clip-rule="evenodd" d="M24 8C21.7909 8 20 9.79086 20 12V52C20 54.2091 21.7909 56 24 56H28C25.7909 56 24 54.2091 24 52V12C24 9.79086 25.7909 8 28 8H24Z" fill="#E3ECEE"/>
<path id="Rectangle_2" d="M20 48H48V52C48 54.2091 46.2091 56 44 56H24C21.7909 56 20 54.2091 20 52V48Z" fill="#D4DAE0"/>
<path id="Combined Shape_2" fill-rule="evenodd" clip-rule="evenodd" d="M24 48H20V52C20 54.2091 21.7909 56 24 56H28C25.7909 56 24 54.2091 24 52V48Z" fill="#7F8E95"/>
<path id="Rectangle_3" d="M20 48H48V52C48 54.2091 46.2091 56 44 56H24C21.7909 56 20 54.2091 20 52V48Z" stroke="#333333"/>
<rect id="Rectangle_4" x="30" y="10" width="8" height="1" rx="0.5" fill="#333333"/>
<rect id="Rectangle_5" x="20" y="8" width="28" height="48" rx="4" stroke="#333333"/>
<rect id="Rectangle_6" x="30" y="51" width="8" height="2" rx="1" stroke="#333333"/>
<g id="Group 3">
<circle id="Oval" cx="47" cy="54" r="6" fill="#FCE181"/>
<path id="Combined Shape_3" fill-rule="evenodd" clip-rule="evenodd" d="M46.0386 59.9234C44.1846 58.886 42.9338 56.9224 42.9338 54.6709C42.9338 51.3376 45.6755 48.6353 49.0575 48.6353C49.298 48.6353 49.5354 48.649 49.7687 48.6756C48.9403 48.244 47.9987 48 47 48C43.6863 48 41 50.6863 41 54C41 56.9865 43.1819 59.4633 46.0386 59.9234Z" fill="#FBCC42"/>
<circle id="Oval_2" cx="47" cy="54" r="5.5" stroke="#333333"/>
</g>
<path id="?" fill-rule="evenodd" clip-rule="evenodd" d="M47.6274 54.7951V55.0328H46.3642V54.6721C46.3642 54.5082 46.3867 54.3689 46.4316 54.2541C46.4765 54.1393 46.5523 54.0328 46.6589 53.9344C46.8161 53.7869 46.9607 53.6585 47.0926 53.5492C47.2246 53.4399 47.3382 53.3374 47.4337 53.2418C47.5291 53.1462 47.6035 53.056 47.6568 52.9713C47.7102 52.8866 47.7368 52.7978 47.7368 52.7049C47.7368 52.5246 47.6793 52.3839 47.5642 52.2828C47.4491 52.1817 47.3046 52.1311 47.1305 52.1311C46.8667 52.1311 46.666 52.2022 46.5284 52.3443C46.3909 52.4863 46.3137 52.6585 46.2968 52.8607L45 52.7787C45.0618 52.1995 45.2807 51.7582 45.6568 51.4549C46.033 51.1516 46.5158 51 47.1053 51C47.3635 51 47.6063 51.0342 47.8337 51.1025C48.0611 51.1708 48.2618 51.2732 48.4358 51.4098C48.6098 51.5464 48.7474 51.7158 48.8484 51.918C48.9495 52.1202 49 52.3525 49 52.6148C49 52.7732 48.9832 52.9167 48.9495 53.0451C48.9158 53.1735 48.8582 53.3005 48.7768 53.4262C48.6954 53.5519 48.5888 53.679 48.4568 53.8074C48.3249 53.9358 48.1579 54.0765 47.9558 54.2295C47.8267 54.3279 47.7396 54.4235 47.6947 54.5164C47.6498 54.6093 47.6274 54.7022 47.6274 54.7951ZM47.2989 56.9426C47.2035 56.9809 47.1025 57 46.9958 57C46.8891 57 46.7881 56.9809 46.6926 56.9426C46.5972 56.9044 46.5144 56.8511 46.4442 56.7828C46.374 56.7145 46.3193 56.6339 46.28 56.541C46.2407 56.4481 46.2211 56.3497 46.2211 56.2459C46.2211 56.1421 46.2407 56.0437 46.28 55.9508C46.3193 55.8579 46.374 55.7773 46.4442 55.709C46.5144 55.6407 46.5972 55.5874 46.6926 55.5492C46.7881 55.5109 46.8891 55.4918 46.9958 55.4918C47.1025 55.4918 47.2035 55.5109 47.2989 55.5492C47.3944 55.5874 47.4772 55.6407 47.5474 55.709C47.6175 55.7773 47.6723 55.8579 47.7116 55.9508C47.7509 56.0437 47.7705 56.1421 47.7705 56.2459C47.7705 56.3497 47.7509 56.4481 47.7116 56.541C47.6723 56.6339 47.6175 56.7145 47.5474 56.7828C47.4772 56.8511 47.3944 56.9044 47.2989 56.9426Z" fill="#333333"/>
</g>
</svg>
