<svg width="40" height="24" viewBox="0 0 40 24" fill="none" xmlns="http://www.w3.org/2000/svg">
<path d="M14.8779 16.4111L16.6619 6.37622H19.4494L17.7211 16.4111H14.8779Z" fill="#3C58BF"/>
<path d="M14.8779 16.4111L17.1636 6.37622H19.4494L17.7211 16.4111H14.8779Z" fill="#293688"/>
<path d="M27.8118 6.48774C27.2544 6.26474 26.3624 6.04175 25.2474 6.04175C22.4599 6.04175 20.453 7.43548 20.453 9.44244C20.453 10.9477 21.8467 11.7282 22.9617 12.2299C24.0767 12.7316 24.4111 13.0661 24.4111 13.5121C24.4111 14.1811 23.5192 14.5156 22.7387 14.5156C21.6237 14.5156 21.0104 14.3484 20.0627 13.9581L19.6725 13.7909L19.2822 16.0766C19.9512 16.3553 21.1777 16.6341 22.4599 16.6341C25.4146 16.6341 27.3659 15.2404 27.3659 13.1219C27.3659 11.9512 26.6411 11.0592 24.9686 10.3344C23.9652 9.83269 23.3519 9.55394 23.3519 9.0522C23.3519 8.60621 23.8537 8.16021 24.9686 8.16021C25.9164 8.16021 26.5854 8.32746 27.0871 8.55046L27.3659 8.66196L27.8118 6.48774Z" fill="#3C58BF"/>
<path d="M27.8118 6.48774C27.2544 6.26474 26.3624 6.04175 25.2474 6.04175C22.4599 6.04175 20.9547 7.43548 20.9547 9.44244C20.9547 10.9477 21.8467 11.7282 22.9617 12.2299C24.0767 12.7316 24.4111 13.0661 24.4111 13.5121C24.4111 14.1811 23.5192 14.5156 22.7387 14.5156C21.6237 14.5156 21.0104 14.3484 20.0627 13.9581L19.6725 13.7909L19.2822 16.0766C19.9512 16.3553 21.1777 16.6341 22.4599 16.6341C25.4146 16.6341 27.3659 15.2404 27.3659 13.1219C27.3659 11.9512 26.6411 11.0592 24.9686 10.3344C23.9652 9.83269 23.3519 9.55394 23.3519 9.0522C23.3519 8.60621 23.8537 8.16021 24.9686 8.16021C25.9164 8.16021 26.5854 8.32746 27.0871 8.55046L27.3659 8.66196L27.8118 6.48774Z" fill="#293688"/>
<path fill-rule="evenodd" clip-rule="evenodd" d="M31.1568 7.10096C31.4355 6.43197 31.9373 6.37622 32.6062 6.37622H34.7805L37.1219 16.4111H34.446L34.1115 14.7386H30.5435L29.986 16.4111H26.9756L31.1568 7.10096ZM32.439 10.1114C32.439 10.1114 31.4913 12.5644 31.324 13.0661V13.1219H33.6655C33.554 12.5644 32.9965 10.0557 32.9965 10.0557L32.8292 9.10793C32.662 9.49817 32.439 10.1114 32.439 10.1114Z" fill="#3C58BF"/>
<path fill-rule="evenodd" clip-rule="evenodd" d="M31.8258 7.10096C32.1045 6.43197 32.6062 6.37622 33.2752 6.37622H34.7805L37.1219 16.4111H34.446L34.1115 14.7386H30.5435L29.986 16.4111H26.9756L31.8258 7.10096ZM32.439 10.1114C32.439 10.1114 31.547 12.5086 31.324 13.0661V13.1219H33.6655C33.554 12.5644 32.9965 10.0557 32.9965 10.0557L32.8292 9.10793C32.662 9.49817 32.439 10.1114 32.439 10.1114Z" fill="#293688"/>
<path d="M9.74906 13.4005L9.47031 11.951C8.96857 10.2786 7.35184 8.43885 5.56787 7.54687L8.07658 16.4667H11.087L15.6027 6.43188H12.5923L9.74906 13.4005Z" fill="#3C58BF"/>
<path d="M9.74906 13.4005L9.47031 11.951C8.96857 10.2786 7.35184 8.43885 5.56787 7.54687L8.07658 16.4667H11.087L15.6027 6.43188H13.1498L9.74906 13.4005Z" fill="#293688"/>
<path d="M2 6.37622L2.50174 6.48772C6.06969 7.32396 8.52265 9.44242 9.47038 11.9511L8.4669 7.21246C8.29965 6.54347 7.79791 6.37622 7.18467 6.37622H2V6.37622Z" fill="#FFBC00"/>
<path d="M2 6.37622C5.56794 7.21246 8.52265 9.38667 9.47038 11.8954L8.52265 7.9372C8.3554 7.26821 7.79791 6.87796 7.18467 6.87796L2 6.37622Z" fill="#F7981D"/>
<path d="M2 6.37622C5.56794 7.21246 8.52265 9.38667 9.47038 11.8954L8.80139 9.72117C8.63415 9.05218 8.41115 8.38319 7.63066 8.10444L2 6.37622Z" fill="#ED7C00"/>
<path d="M12.5364 13.0661L10.641 11.1707L9.74897 13.2891L9.52597 11.8954C9.02423 10.2229 7.40751 8.3832 5.62354 7.49121L8.13225 16.4111H11.1427L12.5364 13.0661Z" fill="#051244"/>
<path d="M17.7211 16.411L15.3239 13.958L14.8779 16.411H17.7211Z" fill="#051244"/>
<path d="M24.1324 12.9546C24.3554 13.1776 24.4669 13.3448 24.4111 13.5678C24.4111 14.2368 23.5192 14.5713 22.7387 14.5713C21.6237 14.5713 21.0104 14.4041 20.0627 14.0138L19.6725 13.8466L19.2822 16.1323C19.9512 16.411 21.1777 16.6898 22.4599 16.6898C24.2439 16.6898 25.6934 16.188 26.5296 15.2961L24.1324 12.9546Z" fill="#051244"/>
<path d="M27.3657 16.411H29.9859L30.5434 14.7386H34.1114L34.4459 16.411H37.1218L36.1741 12.3414L32.8291 9.10791L32.9964 9.9999C32.9964 9.9999 33.5539 12.5086 33.6654 13.0661H31.3239C31.5469 12.5086 32.4389 10.1114 32.4389 10.1114C32.4389 10.1114 32.6619 9.49815 32.8291 9.10791" fill="#051244"/>
</svg>
