<svg width="24" height="24" viewBox="0 0 24 24" fill="none" xmlns="http://www.w3.org/2000/svg">
<g id="icon/bag">
<path id="Shape" fill-rule="evenodd" clip-rule="evenodd" d="M11.9999 2.5C13.8646 2.5 14.9813 4.22991 15.4397 7.49971L16.5874 7.5C17.4889 7.5 18.266 8.11509 18.4826 8.97653L18.5149 9.13103L20.2085 19.2219C20.3872 20.2865 19.669 21.2944 18.6044 21.473L18.4432 21.4932L18.2809 21.5H5.71895C4.63948 21.5 3.7644 20.6249 3.7644 19.5455L3.77116 19.3831L3.79136 19.2219L5.48494 9.13103C5.63417 8.24188 6.36938 7.5774 7.25481 7.50631L7.41253 7.5L8.56021 7.49971C9.01855 4.22991 10.1353 2.5 11.9999 2.5ZM16.7023 8.50689L16.5874 8.5H7.41253C6.98517 8.5 6.61512 8.78298 6.49698 9.18429L6.47115 9.29655L4.77757 19.3875C4.76881 19.4397 4.7644 19.4925 4.7644 19.5455C4.7644 20.035 5.1329 20.4384 5.60763 20.4936L5.71895 20.5H18.2809C18.3339 20.5 18.3867 20.4956 18.4389 20.4868C18.9217 20.4058 19.2586 19.9756 19.2344 19.4983L19.2223 19.3875L17.5287 9.29655C17.458 8.87509 17.1177 8.55698 16.7023 8.50689ZM9.57021 7.4997C9.97137 4.77371 10.8093 3.5 11.9999 3.5C13.1906 3.5 14.0285 4.77371 14.4297 7.4997H9.57021Z" fill="#849299"/>
<circle id="Oval" cx="8.5" cy="10.5" r="0.5" fill="#849299"/>
<circle id="Oval_2" cx="15.5" cy="10.5" r="0.5" fill="#849299"/>
</g>
</svg>
