<svg width="24" height="24" viewBox="0 0 24 24" fill="none" xmlns="http://www.w3.org/2000/svg">
<g id="icon/calendar">
<path id="Rectangle" fill-rule="evenodd" clip-rule="evenodd" d="M22 7C22 5.89543 21.1046 5 20 5H4C2.89543 5 2 5.89543 2 7V20C2 21.1046 2.89543 22 4 22H20C21.1046 22 22 21.1046 22 20V7ZM4 6H20L20.1166 6.00673C20.614 6.06449 21 6.48716 21 7V20L20.9933 20.1166C20.9355 20.614 20.5128 21 20 21H4L3.88338 20.9933C3.38604 20.9355 3 20.5128 3 20V7L3.00673 6.88338C3.06449 6.38604 3.48716 6 4 6Z" fill="#849299"/>
<path id="Rectangle_2" fill-rule="evenodd" clip-rule="evenodd" d="M2 10H22V11H2V10Z" fill="#849299"/>
<path id="Rectangle_3" fill-rule="evenodd" clip-rule="evenodd" d="M7.5 2C7.77614 2 8 2.22386 8 2.5V6.5C8 6.77614 7.77614 7 7.5 7C7.22386 7 7 6.77614 7 6.5V2.5C7 2.22386 7.22386 2 7.5 2Z" fill="#849299"/>
<path id="Rectangle_4" fill-rule="evenodd" clip-rule="evenodd" d="M16.5 2C16.7761 2 17 2.22386 17 2.5V6.5C17 6.77614 16.7761 7 16.5 7C16.2239 7 16 6.77614 16 6.5V2.5C16 2.22386 16.2239 2 16.5 2Z" fill="#849299"/>
</g>
</svg>
