<svg width="24" height="24" viewBox="0 0 24 24" fill="none" xmlns="http://www.w3.org/2000/svg">
<path fill-rule="evenodd" clip-rule="evenodd" d="M8 14C8 11.7909 9.79086 10 12 10C14.2091 10 16 11.7909 16 14C16 16.2091 14.2091 18 12 18C9.79086 18 8 16.2091 8 14ZM15 14C15 12.3431 13.6569 11 12 11C10.3431 11 9 12.3431 9 14C9 15.6569 10.3431 17 12 17C13.6569 17 15 15.6569 15 14Z" fill="#849299"/>
<rect x="5" y="9" width="3" height="1" rx="0.5" fill="#849299"/>
<circle cx="18.5" cy="9.5" r="0.5" fill="#849299"/>
<path fill-rule="evenodd" clip-rule="evenodd" d="M8.0575 3.00183L8.19439 2.99561H13.7866C14.4234 2.99561 14.9908 3.3977 15.2019 3.99853L15.913 6.02409L19.5 6.02426C20.8255 6.02426 21.91 7.05579 21.9947 8.35988L22 8.52426V18.4956C22 19.8763 20.8807 20.9956 19.5 20.9956H4.5C3.11929 20.9956 2 19.8763 2 18.4956V8.52426C2 7.14355 3.11929 6.02426 4.5 6.02426L6.098 6.02409L6.77236 4.01831C6.96278 3.45095 7.46999 3.05544 8.0575 3.00183ZM13.7866 3.99561H8.19439C7.97956 3.99561 7.78874 4.13284 7.72038 4.33651L6.93268 6.68335C6.86432 6.88702 6.6735 7.02426 6.45867 7.02426H4.5C3.67157 7.02426 3 7.69583 3 8.52426V18.4956C3 19.324 3.67157 19.9956 4.5 19.9956H19.5C20.3284 19.9956 21 19.324 21 18.4956V8.52426C21 7.69583 20.3284 7.02426 19.5 7.02426H15.559C15.3467 7.02426 15.1576 6.89022 15.0873 6.68995L14.2584 4.32992C14.188 4.12964 13.9989 3.99561 13.7866 3.99561Z" fill="#849299"/>
</svg>
