<svg width="24" height="24" viewBox="0 0 24 24" fill="none" xmlns="http://www.w3.org/2000/svg">
<g id="icon/close">
<path id="Combined Shape" fill-rule="evenodd" clip-rule="evenodd" d="M5.28976 4.16763C4.97582 3.92357 4.52212 3.94604 4.23394 4.23487C3.92175 4.54777 3.92206 5.05478 4.23462 5.3673L10.8685 12.0004L4.23424 18.6348C3.92189 18.9471 3.92193 19.4535 4.23433 19.7658C4.5227 20.0541 4.97642 20.0762 5.29019 19.8322L5.36554 19.7657L11.9997 13.1314L18.6348 19.7658L18.7102 19.8324C19.0242 20.0764 19.4779 20.054 19.7661 19.7651C20.0782 19.4522 20.0779 18.9452 19.7654 18.6327L13.1315 11.9996L19.7658 5.36525C20.0781 5.05289 20.0781 4.54651 19.7657 4.2342C19.4773 3.94592 19.0236 3.92378 18.7098 4.16775L18.6345 4.23429L12.0003 10.8686L5.36515 4.23419L5.28976 4.16763Z" fill="#849299"/>
</g>
</svg>
