<svg width="24" height="24" viewBox="0 0 24 24" fill="none" xmlns="http://www.w3.org/2000/svg">
<g id="icon/credit_card">
<path id="Combined Shape" fill-rule="evenodd" clip-rule="evenodd" d="M20.3333 5C21.2538 5 22 5.74619 22 6.66667V9.5V10.5V17.3333C22 18.2538 21.2538 19 20.3333 19H3.66667C2.74619 19 2 18.2538 2 17.3333V10.5V9.5V6.66667C2 5.74619 2.74619 5 3.66667 5H20.3333ZM3 10.5V17.3333C3 17.6681 3.24668 17.9452 3.56815 17.9928L3.66667 18H20.3333C20.6681 18 20.9452 17.7533 20.9928 17.4318L21 17.3333V10.5H3ZM21 9.5H3V6.66667L3.00723 6.56815C3.05484 6.24668 3.33195 6 3.66667 6H20.3333L20.4318 6.00723C20.7533 6.05484 21 6.33195 21 6.66667V9.5Z" fill="#849299"/>
<circle id="Oval" cx="11.5" cy="15.5" r="0.5" fill="#849299"/>
<rect id="Rectangle" x="5" y="15" width="5" height="1" rx="0.5" fill="#849299"/>
</g>
</svg>
