<svg width="16" height="16" viewBox="0 0 16 16" fill="none" xmlns="http://www.w3.org/2000/svg">
<path fill-rule="evenodd" clip-rule="evenodd" d="M3.52634 2.77874C3.31705 2.61604 3.01458 2.63102 2.82247 2.82357C2.61434 3.03217 2.61454 3.37018 2.82292 3.57853L7.2455 8.00058L2.82266 12.4235C2.61443 12.6317 2.61445 12.9693 2.82272 13.1775C3.01497 13.3697 3.31745 13.3845 3.52663 13.2218L3.57686 13.1775L7.99963 8.75462L12.4231 13.1775L12.4733 13.2219C12.6826 13.3846 12.9851 13.3696 13.1772 13.1771C13.3853 12.9685 13.3851 12.6305 13.1768 12.4221L8.75417 8.00007L13.177 3.57716C13.3852 3.36892 13.3852 3.03133 13.177 2.82313C12.9847 2.63094 12.6822 2.61618 12.473 2.77883L12.4228 2.82319L8.00004 7.24603L3.5766 2.82312L3.52634 2.77874Z" fill="#849299"/>
</svg>
