<svg width="20" height="20" viewBox="0 0 20 20" fill="none" xmlns="http://www.w3.org/2000/svg">
<path d="M16.3309 3.12891C15.4908 2.29036 14.1305 2.29036 13.2905 3.12891L12.5294 3.89416L4.42784 11.9914L4.41063 12.0088C4.40646 12.0129 4.40646 12.0174 4.40202 12.0174C4.39341 12.0303 4.3805 12.0431 4.37202 12.056C4.37202 12.0603 4.36758 12.0603 4.36758 12.0646C4.35897 12.0775 4.3548 12.0861 4.34606 12.099C4.34189 12.1033 4.34189 12.1075 4.33759 12.1119C4.33328 12.1249 4.32898 12.1335 4.32454 12.1464C4.32454 12.1505 4.32037 12.1505 4.32037 12.155L2.52287 17.5602C2.47015 17.7141 2.51023 17.8846 2.62605 17.9988C2.70743 18.0791 2.81719 18.124 2.93139 18.1236C2.97807 18.1228 3.02434 18.1155 3.069 18.1021L8.47009 16.3003C8.47426 16.3003 8.47426 16.3003 8.4787 16.2961C8.49228 16.2921 8.50533 16.2863 8.5173 16.2787C8.52066 16.2783 8.52362 16.2769 8.52604 16.2746C8.53882 16.266 8.55604 16.2572 8.56895 16.2486C8.58173 16.2401 8.59478 16.2272 8.60769 16.2186C8.612 16.2142 8.61617 16.2142 8.61617 16.21C8.62061 16.2057 8.62922 16.2015 8.63352 16.1928L17.4962 7.33015C18.3347 6.49012 18.3347 5.12979 17.4962 4.28989L16.3309 3.12891ZM8.33248 15.2897L5.33957 12.2969L12.8305 4.80602L15.8234 7.79879L8.33248 15.2897ZM4.91801 13.0924L7.53267 15.7069L3.60651 17.0141L4.91801 13.0924ZM16.8899 6.72807L16.434 7.18824L13.441 4.1952L13.9013 3.73516C14.4048 3.23209 15.2209 3.23209 15.7245 3.73516L16.8941 4.90475C17.3938 5.41052 17.3919 6.22473 16.8899 6.72807Z" fill="#849299"/>
</svg>
