<svg width="24" height="24" viewBox="0 0 24 24" fill="none" xmlns="http://www.w3.org/2000/svg">
<g id="icon/filter">
<path id="Combined Shape" fill-rule="evenodd" clip-rule="evenodd" d="M6 5.5C6 4.67157 5.32843 4 4.5 4C3.67157 4 3 4.67157 3 5.5C3 6.32843 3.67157 7 4.5 7C5.32843 7 6 6.32843 6 5.5ZM2.05001 6C2.28164 7.14112 3.29052 8 4.5 8C5.70948 8 6.71836 7.14112 6.94999 6H23.5C23.7761 6 24 5.77614 24 5.5C24 5.22386 23.7761 5 23.5 5H6.94999C6.71836 3.85888 5.70948 3 4.5 3C3.29052 3 2.28164 3.85888 2.05001 5H0.5C0.223858 5 0 5.22386 0 5.5C0 5.77614 0.223858 6 0.5 6H2.05001ZM0.5 12C0.223858 12 0 12.2239 0 12.5C0 12.7761 0.223858 13 0.5 13H15.05C15.2816 14.1411 16.2905 15 17.5 15C18.7095 15 19.7184 14.1411 19.95 13H23.5C23.7761 13 24 12.7761 24 12.5C24 12.2239 23.7761 12 23.5 12H19.95C19.7184 10.8589 18.7095 10 17.5 10C16.2905 10 15.2816 10.8589 15.05 12H0.5ZM17.5 11C18.3284 11 19 11.6716 19 12.5C19 13.3284 18.3284 14 17.5 14C16.6716 14 16 13.3284 16 12.5C16 11.6716 16.6716 11 17.5 11ZM0.5 19C0.223858 19 0 19.2239 0 19.5C0 19.7761 0.223858 20 0.5 20H6.05001C6.28164 21.1411 7.29052 22 8.5 22C9.70948 22 10.7184 21.1411 10.95 20H23.5C23.7761 20 24 19.7761 24 19.5C24 19.2239 23.7761 19 23.5 19H10.95C10.7184 17.8589 9.70948 17 8.5 17C7.29052 17 6.28164 17.8589 6.05001 19H0.5ZM10 19.5C10 18.6716 9.32843 18 8.5 18C7.67157 18 7 18.6716 7 19.5C7 20.3284 7.67157 21 8.5 21C9.32843 21 10 20.3284 10 19.5Z" fill="#849299"/>
</g>
</svg>
