<svg width="24" height="24" viewBox="0 0 24 24" fill="none" xmlns="http://www.w3.org/2000/svg">
<g id="icon/filter_complete">
<path id="Combined Shape" fill-rule="evenodd" clip-rule="evenodd" d="M8 5.5C8 4.67157 7.32843 4 6.5 4C5.67157 4 5 4.67157 5 5.5C5 6.32843 5.67157 7 6.5 7C7.32843 7 8 6.32843 8 5.5ZM4.05001 6C4.28164 7.14112 5.29052 8 6.5 8C7.70948 8 8.71836 7.14112 8.94999 6H21.4937C21.7699 6 21.9937 5.77614 21.9937 5.5C21.9937 5.22386 21.7699 5 21.4937 5H8.94999C8.71836 3.85888 7.70948 3 6.5 3C5.29052 3 4.28164 3.85888 4.05001 5H2.5C2.22386 5 2 5.22386 2 5.5C2 5.77614 2.22386 6 2.5 6H4.05001ZM2.5 12C2.22386 12 2 12.2239 2 12.5C2 12.7761 2.22386 13 2.5 13H13.05C13.2816 14.1411 14.2905 15 15.5 15C16.7095 15 17.7184 14.1411 17.95 13H21.4931C21.7692 13 21.9931 12.7761 21.9931 12.5C21.9931 12.2239 21.7692 12 21.4931 12H17.95C17.7184 10.8589 16.7095 10 15.5 10C14.2905 10 13.2816 10.8589 13.05 12H2.5ZM16.9931 12.5C16.9931 12.4754 16.9948 12.4512 16.9983 12.4276C16.9605 11.6328 16.3041 11 15.5 11C14.6716 11 14 11.6716 14 12.5C14 13.3284 14.6716 14 15.5 14C16.3041 14 16.9605 13.3672 16.9983 12.5724C16.9948 12.5488 16.9931 12.5246 16.9931 12.5ZM2.5 19C2.22386 19 2 19.2239 2 19.5C2 19.7761 2.22386 20 2.5 20H8.05001C8.28164 21.1411 9.29052 22 10.5 22C11.7095 22 12.7184 21.1411 12.95 20H21.4993C21.7755 20 21.9993 19.7761 21.9993 19.5C21.9993 19.2239 21.7755 19 21.4993 19H12.95C12.7184 17.8589 11.7095 17 10.5 17C9.29052 17 8.28164 17.8589 8.05001 19H2.5ZM12 19.5C12 18.6716 11.3284 18 10.5 18C9.67157 18 9 18.6716 9 19.5C9 20.3284 9.67157 21 10.5 21C11.3284 21 12 20.3284 12 19.5Z" fill="#4C6072"/>
<circle id="Oval" cx="19.5" cy="4.5" r="2.5" fill="#E84A31"/>
</g>
</svg>
