<svg width="24" height="24" viewBox="0 0 24 24" fill="none" xmlns="http://www.w3.org/2000/svg">
<g id="icon/loading">
<path id="Combined Shape" fill-rule="evenodd" clip-rule="evenodd" d="M13 6C14.6569 6 16 4.65685 16 3C16 1.34315 14.6569 0 13 0C11.3431 0 10 1.34315 10 3C10 4.65685 11.3431 6 13 6ZM12.5 24C13.3284 24 14 23.3284 14 22.5C14 21.6716 13.3284 21 12.5 21C11.6716 21 11 21.6716 11 22.5C11 23.3284 11.6716 24 12.5 24ZM8 5.5C8 6.88071 6.88071 8 5.5 8C4.11929 8 3 6.88071 3 5.5C3 4.11929 4.11929 3 5.5 3C6.88071 3 8 4.11929 8 5.5ZM20 20C20.5523 20 21 19.5523 21 19C21 18.4477 20.5523 18 20 18C19.4477 18 19 18.4477 19 19C19 19.5523 19.4477 20 20 20ZM4 12C4 13.1046 3.10457 14 2 14C0.895431 14 0 13.1046 0 12C0 10.8954 0.895431 10 2 10C3.10457 10 4 10.8954 4 12ZM23 13C23.5523 13 24 12.5523 24 12C24 11.4477 23.5523 11 23 11C22.4477 11 22 11.4477 22 12C22 12.5523 22.4477 13 23 13ZM3.43962 18.4418C2.85346 19.0275 2.85346 19.9751 3.43962 20.5608C4.02509 21.1464 4.97491 21.1464 5.56038 20.5608C6.14654 19.9751 6.14654 19.0275 5.56038 18.4418C4.97491 17.8555 4.02578 17.8499 3.43962 18.4418ZM20.5 7C20.7761 7 21 6.77614 21 6.5C21 6.22386 20.7761 6 20.5 6C20.2239 6 20 6.22386 20 6.5C20 6.77614 20.2239 7 20.5 7Z" fill="#849299"/>
</g>
</svg>
