<svg width="32" height="32" viewBox="0 0 32 32" fill="none" xmlns="http://www.w3.org/2000/svg">
<circle cx="16" cy="16" r="16" fill="#333333"/>
<path d="M17.5857 22.8535L23.1831 9.90439C23.3136 9.63529 23.054 9.21722 22.659 9.36384L9.58815 14.6212C9.42452 14.687 9.32199 14.8508 9.33424 15.0267C9.34109 15.125 9.38285 15.2145 9.44825 15.2818C9.49994 15.3351 9.56639 15.3744 9.64198 15.3931L15.4972 16.846L16.8155 22.7803C16.8537 22.9524 16.9985 23.0803 17.174 23.0969C17.3495 23.1136 17.5158 23.0153 17.5857 22.8535ZM21.0053 10.9055L15.6359 16.0424L11.058 14.9066L21.0053 10.9055ZM16.2676 16.5636L21.6405 11.4233L17.3372 21.3787L16.2676 16.5636Z" fill="white"/>
</svg>
