<svg width="24" height="24" viewBox="0 0 24 24" fill="none" xmlns="http://www.w3.org/2000/svg">
<g id="icon/money">
<path id="Combined Shape" fill-rule="evenodd" clip-rule="evenodd" d="M4.92648 19.0686C8.82682 22.9772 15.1503 22.9772 19.051 19.0682C19.2676 18.8511 19.2676 18.4991 19.051 18.2819C18.8343 18.0648 18.4721 18.1701 18.2554 18.3872C14.7881 21.8618 9.16724 21.8619 5.70027 18.3876C4.92564 17.6113 4.22695 16.5963 3.78916 15.6163C2.29688 12.2757 2.98978 8.22852 5.61608 5.59667C9.06537 2.14009 15.0041 2.16667 18.2554 5.59967C20.8371 8.32567 21.2565 11.2871 20.6324 14.0341C20.5644 14.3335 20.7514 14.6315 21.0502 14.6997C21.349 14.7679 21.6464 14.5804 21.7144 14.281C22.413 11.2063 21.9398 7.96514 19.0607 4.92508C15.3759 1.0344 8.81378 1.01916 4.92687 4.91429C1.97246 7.87494 1.19256 12.3255 2.8714 16.0837C3.36421 17.1869 4.05588 18.1962 4.92648 19.0686ZM19.7464 17.0536C19.5512 16.8583 19.5512 16.5417 19.7464 16.3464C19.9417 16.1512 20.2583 16.1512 20.4536 16.3464C20.6488 16.5417 20.6488 16.8583 20.4536 17.0536C20.2583 17.2488 19.9417 17.2488 19.7464 17.0536ZM8.15127 10.507C7.98789 7.76796 11.9531 7.04364 13.0897 9.49092C13.2227 9.77714 13.0984 10.1169 12.8122 10.2499C12.526 10.3828 12.1862 10.2586 12.0532 9.97234C11.4239 8.61726 9.20759 9.02211 9.2921 10.4389C9.32208 10.9416 9.55319 11.1643 10.3683 11.452L10.7653 11.5837C12.2233 12.0453 12.8122 12.4236 12.9863 13.4837C13.417 16.1065 9.61809 16.955 8.09535 14.6601C7.92086 14.3972 7.99258 14.0425 8.25555 13.868C8.51852 13.6936 8.87314 13.7653 9.04763 14.0282C9.95712 15.3989 12.0653 14.928 11.8585 13.6689C11.7871 13.2339 11.5192 13.0358 10.6224 12.7386L10.4096 12.6699C8.85507 12.1778 8.22448 11.7344 8.15127 10.507ZM16.0001 8.56322C15.9962 8.29232 15.7993 8.05457 15.5226 8.00845L15.4197 8.00065C15.1488 8.00455 14.9111 8.20146 14.865 8.47817L13.7221 15.3353L13.7143 15.4381C13.7182 15.709 13.9151 15.9468 14.1918 15.9929C14.5031 16.0448 14.7975 15.8345 14.8494 15.5232L15.9923 8.66605L16.0001 8.56322Z" fill="#849299"/>
</g>
</svg>
