<svg width="20" height="20" viewBox="0 0 20 20" fill="none" xmlns="http://www.w3.org/2000/svg">
<path fill-rule="evenodd" clip-rule="evenodd" d="M11.6668 4.99992C11.6668 5.92039 10.9206 6.66659 10.0002 6.66659C9.07969 6.66659 8.3335 5.92039 8.3335 4.99992C8.3335 4.07944 9.07969 3.33325 10.0002 3.33325C10.9206 3.33325 11.6668 4.07944 11.6668 4.99992ZM11.6668 9.99992C11.6668 10.9204 10.9206 11.6666 10.0002 11.6666C9.07969 11.6666 8.3335 10.9204 8.3335 9.99992C8.3335 9.07944 9.07969 8.33325 10.0002 8.33325C10.9206 8.33325 11.6668 9.07944 11.6668 9.99992ZM10.0002 16.6666C10.9206 16.6666 11.6668 15.9204 11.6668 14.9999C11.6668 14.0794 10.9206 13.3333 10.0002 13.3333C9.07969 13.3333 8.3335 14.0794 8.3335 14.9999C8.3335 15.9204 9.07969 16.6666 10.0002 16.6666Z" fill="#849299"/>
</svg>
