<svg width="24" height="22" viewBox="0 0 24 22" fill="none" xmlns="http://www.w3.org/2000/svg">
<path d="M17.8332 5.16699V20.2365C17.8332 20.5049 17.6156 20.7226 17.3471 20.7226H6.65267C6.3842 20.7226 6.16654 20.5049 6.16654 20.2365V5.16699H5.19434V20.2365C5.19434 21.0419 5.84726 21.6948 6.65267 21.6948H17.3471C18.1525 21.6948 18.8055 21.0419 18.8055 20.2365V5.16699H17.8332Z" fill="#849299"/>
<path d="M15.8887 14.4028V16.3876C14.6656 16.5967 13.7075 17.5547 13.4985 18.7778H10.5011C10.292 17.5547 9.33396 16.5967 8.11088 16.3876V14.4028H7.13867V16.8334C7.13867 17.1018 7.35633 17.3195 7.6248 17.3195C8.69868 17.3195 9.56926 18.19 9.56926 19.264C9.56926 19.5324 9.78691 19.7501 10.0554 19.7501H13.9442C14.2127 19.7501 14.4304 19.5324 14.4304 19.264C14.4304 18.1901 15.301 17.3195 16.3748 17.3195C16.6433 17.3195 16.861 17.1018 16.861 16.8334V14.4028H15.8887V14.4028Z" fill="#849299"/>
<path d="M16.8611 18.7778H15.8889V19.75H16.8611V18.7778Z" fill="#849299"/>
<path d="M8.11088 18.7778H7.13867V19.75H8.11088V18.7778Z" fill="#849299"/>
<path d="M11.9998 5.16699C9.3151 5.16699 7.13867 7.34337 7.13867 10.0281C7.13867 12.7128 9.31506 14.8892 11.9998 14.8892C14.6833 14.8863 16.858 12.7116 16.8609 10.0281C16.8609 7.34337 14.6845 5.16699 11.9998 5.16699ZM11.9998 13.917C9.85204 13.917 8.11093 12.1759 8.11093 10.0281C8.11093 7.88036 9.85204 6.13924 11.9998 6.13924C14.1466 6.14166 15.8863 7.88136 15.8887 10.0281C15.8887 12.1759 14.1476 13.917 11.9998 13.917Z" fill="#849299"/>
<path d="M22.2083 0.305664H1.79159C0.986175 0.305664 0.333252 0.958587 0.333252 1.764V7.59733C0.333252 8.40274 0.986175 9.05566 1.79159 9.05566H4.22213V8.08346H1.79159C1.52312 8.08346 1.30546 7.8658 1.30546 7.59733V1.764C1.30546 1.49553 1.52312 1.27787 1.79159 1.27787H22.2083C22.4767 1.27787 22.6944 1.49553 22.6944 1.764V7.59733C22.6944 7.8658 22.4767 8.08346 22.2083 8.08346H19.7777V9.05566H22.2083C23.0137 9.05566 23.6666 8.40274 23.6666 7.59733V1.764C23.6666 0.958587 23.0137 0.305664 22.2083 0.305664Z" fill="#849299"/>
<path d="M20.2639 3.22217H3.73613C3.46766 3.22217 3.25 3.43982 3.25 3.70829V5.65275H4.22221V4.19442H19.7777V5.65275H20.75V3.70829C20.75 3.43982 20.5323 3.22217 20.2639 3.22217Z" fill="#849299"/>
</svg>
