<svg width="40" height="40" viewBox="0 0 40 40" fill="none" xmlns="http://www.w3.org/2000/svg">
<circle cx="20" cy="20" r="20" fill="#333333"/>
<path d="M29.8699 25.6541L25.6532 22.842C25.118 22.488 24.4007 22.6045 24.0051 23.1096L22.7768 24.6889C22.619 24.8971 22.332 24.9574 22.1037 24.8306L21.87 24.7018C21.0955 24.2796 20.1318 23.754 18.19 21.8116C16.2483 19.8692 15.7217 18.9047 15.2995 18.1316L15.1714 17.8979C15.0428 17.6696 15.102 17.3815 15.3102 17.2223L16.8884 15.9944C17.3934 15.5988 17.51 14.8817 17.1565 14.3464L14.3444 10.1296C13.982 9.58456 13.255 9.42092 12.694 9.75816L10.9307 10.8174C10.3767 11.1431 9.97019 11.6706 9.7965 12.2894C9.16155 14.6029 9.63922 18.5957 15.521 24.4782C20.1998 29.1566 23.683 30.4148 26.0771 30.4148C26.6281 30.4172 27.1769 30.3455 27.7088 30.2017C28.3277 30.0282 28.8553 29.6217 29.1808 29.0675L30.2411 27.3052C30.5788 26.7441 30.4152 26.0166 29.8699 25.6541ZM29.6428 26.949L28.585 28.7123C28.3513 29.1123 27.9718 29.4064 27.5261 29.533C25.3903 30.1194 21.659 29.6337 16.0122 23.987C10.3655 18.3402 9.87983 14.6092 10.4662 12.473C10.593 12.0268 10.8874 11.6469 11.2879 11.4128L13.0512 10.3549C13.2946 10.2085 13.6102 10.2795 13.7674 10.516L15.295 12.8094L16.5771 14.7324C16.7307 14.9646 16.6802 15.2758 16.4612 15.4476L14.8826 16.6755C14.4022 17.0428 14.265 17.7075 14.5608 18.235L14.6861 18.4628C15.1298 19.2765 15.6815 20.2889 17.6954 22.3025C19.7093 24.3161 20.7214 24.8677 21.5348 25.3114L21.7628 25.4371C22.2903 25.7328 22.955 25.5956 23.3223 25.1153L24.5503 23.5367C24.7221 23.3177 25.0332 23.2673 25.2654 23.4207L29.4818 26.2328C29.7185 26.3899 29.7895 26.7056 29.6428 26.949Z" fill="white"/>
<path d="M21.3882 13.0566C24.6462 13.0602 27.2864 15.7005 27.2901 18.9585C27.2901 19.1503 27.4455 19.3057 27.6372 19.3057C27.829 19.3057 27.9844 19.1503 27.9844 18.9585C27.9804 15.3172 25.0295 12.3663 21.3882 12.3623C21.1964 12.3623 21.041 12.5177 21.041 12.7095C21.041 12.9012 21.1964 13.0566 21.3882 13.0566Z" fill="white"/>
<path d="M21.3882 15.1396C23.4963 15.1421 25.2046 16.8504 25.2071 18.9585C25.2071 19.1503 25.3625 19.3057 25.5542 19.3057C25.746 19.3057 25.9014 19.1503 25.9014 18.9585C25.8985 16.4671 23.8795 14.4482 21.3882 14.4453C21.1964 14.4453 21.041 14.6007 21.041 14.7925C21.041 14.9842 21.1964 15.1396 21.3882 15.1396Z" fill="white"/>
<path d="M21.3882 17.2226C22.3464 17.2238 23.1229 18.0003 23.124 18.9585C23.124 19.1502 23.2795 19.3057 23.4712 19.3057C23.6629 19.3057 23.8184 19.1502 23.8184 18.9585C23.8168 17.617 22.7297 16.5298 21.3882 16.5283C21.1964 16.5283 21.041 16.6837 21.041 16.8755C21.041 17.0672 21.1964 17.2226 21.3882 17.2226Z" fill="white"/>
</svg>
