<svg width="24" height="24" viewBox="0 0 24 24" fill="none" xmlns="http://www.w3.org/2000/svg">
<g id="icon/place">
<path id="Combined Shape" fill-rule="evenodd" clip-rule="evenodd" d="M12.4919 2.3281C12.4496 2.1415 12.2455 2 12 2C11.7239 2 11.5 2.17909 11.5 2.4V5.01758C8.03251 5.2623 5.2623 8.03251 5.01758 11.5H2.4L2.3281 11.5081C2.1415 11.5504 2 11.7545 2 12C2 12.2761 2.17909 12.5 2.4 12.5H5.01758C5.2623 15.9675 8.03251 18.7377 11.5 18.9824V21.6L11.5081 21.6719C11.5504 21.8585 11.7545 22 12 22C12.2761 22 12.5 21.8209 12.5 21.6V18.9824C15.9675 18.7377 18.7377 15.9675 18.9824 12.5H21.6L21.6719 12.4919C21.8585 12.4496 22 12.2455 22 12C22 11.7239 21.8209 11.5 21.6 11.5H18.9824C18.7377 8.03251 15.9675 5.2623 12.5 5.01758V2.4L12.4919 2.3281ZM12 6C8.68629 6 6 8.68629 6 12C6 15.3137 8.68629 18 12 18C15.3137 18 18 15.3137 18 12C18 8.68629 15.3137 6 12 6ZM12 14C13.1046 14 14 13.1046 14 12C14 10.8954 13.1046 10 12 10C10.8954 10 10 10.8954 10 12C10 13.1046 10.8954 14 12 14Z" fill="#849299"/>
</g>
</svg>
