<svg width="16" height="16" viewBox="0 0 16 16" fill="none" xmlns="http://www.w3.org/2000/svg">
<path fill-rule="evenodd" clip-rule="evenodd" d="M14.3334 7.99996C14.3334 11.4978 11.4979 14.3333 8.00008 14.3333C4.50228 14.3333 1.66675 11.4978 1.66675 7.99996C1.66675 4.50216 4.50228 1.66663 8.00008 1.66663C11.4979 1.66663 14.3334 4.50216 14.3334 7.99996ZM15.3334 7.99996C15.3334 12.05 12.0502 15.3333 8.00008 15.3333C3.94999 15.3333 0.666748 12.05 0.666748 7.99996C0.666748 3.94987 3.94999 0.666626 8.00008 0.666626C12.0502 0.666626 15.3334 3.94987 15.3334 7.99996ZM7.90421 3.51028C7.74084 3.50885 7.60498 3.63353 7.58384 3.79603L7.58099 3.83739L7.54854 7.70735L3.78928 7.67413L3.74904 7.67635C3.59079 7.69532 3.46745 7.83312 3.46623 8.00141C3.4649 8.18373 3.60738 8.3328 3.78447 8.33437L7.543 8.36757L7.51054 12.2376C7.50902 12.4198 7.65125 12.5688 7.82823 12.5703C7.99159 12.5717 8.12746 12.4471 8.1486 12.2846L8.15144 12.2432L8.1839 8.37324L11.9432 8.40645L11.9834 8.40424C12.1416 8.38526 12.265 8.24746 12.2662 8.07917C12.2675 7.89685 12.1251 7.74778 11.948 7.74622L8.18944 7.71301L8.22189 3.84299C8.22342 3.66079 8.08119 3.51183 7.90421 3.51028Z" fill="#849299"/>
</svg>
