<svg width="24" height="24" viewBox="0 0 24 24" fill="none" xmlns="http://www.w3.org/2000/svg">
<g id="icon/pointer">
<path id="Combined Shape" fill-rule="evenodd" clip-rule="evenodd" d="M12 2C7.5758 2 4 5.4893 4 9.78206C4 13.5696 9.86564 22 12 22C14.1344 22 20 13.5696 20 9.78206C20 5.4893 16.4242 2 12 2ZM12 3C15.8601 3 19 6.04554 19 9.81375C19 13.1322 13.4927 21 12 21C10.5073 21 5 13.1322 5 9.81375C5 6.04554 8.13988 3 12 3ZM12 6C10.3431 6 9 7.34315 9 9C9 10.6569 10.3431 12 12 12C13.6569 12 15 10.6569 15 9C15 7.34315 13.6569 6 12 6ZM12 7C13.1046 7 14 7.89543 14 9C14 10.1046 13.1046 11 12 11C10.8954 11 10 10.1046 10 9C10 7.89543 10.8954 7 12 7Z" fill="#849299"/>
</g>
</svg>
