<svg width="24" height="22" viewBox="0 0 24 22" fill="none" xmlns="http://www.w3.org/2000/svg">
<path d="M7.6894 11.9983C7.74548 12.2 7.92866 12.3319 8.12804 12.3319C8.16863 12.3319 8.20975 12.3266 8.25052 12.3152L12.9288 11.013C13.1713 10.9455 13.3132 10.6941 13.2457 10.4517C13.1783 10.2094 12.9271 10.0675 12.6844 10.135L8.0061 11.437C7.76381 11.5046 7.62193 11.7558 7.6894 11.9983V11.9983Z" fill="#849299"/>
<path d="M9.74883 12.5995C9.49497 12.8533 9.35522 13.1907 9.35522 13.5497C9.35522 13.9086 9.49497 14.246 9.74883 14.4998C10.0109 14.7617 10.3548 14.8927 10.6989 14.8927C11.043 14.8927 11.3871 14.7617 11.6492 14.4998C12.1731 13.9759 12.1731 13.1234 11.6492 12.5995C11.1253 12.0756 10.2727 12.0756 9.74883 12.5995ZM11.0046 13.8552C10.836 14.0238 10.5618 14.0238 10.3933 13.8552C10.3115 13.7737 10.2667 13.6651 10.2667 13.5496C10.2667 13.4342 10.3117 13.3256 10.3933 13.2439C10.4776 13.1597 10.5884 13.1175 10.6989 13.1175C10.8096 13.1175 10.9204 13.1597 11.0046 13.2439C11.1732 13.4125 11.1732 13.6868 11.0046 13.8552Z" fill="#849299"/>
<path d="M11.8748 9.88624C12.3987 9.36215 12.3987 8.5098 11.8748 7.98589C11.621 7.73203 11.2835 7.59229 10.9246 7.59229C10.5657 7.59229 10.2282 7.73203 9.97448 7.98589C9.45057 8.5098 9.45057 9.36215 9.97448 9.88624C10.2365 10.1481 10.5805 10.2791 10.9246 10.2791C11.2687 10.2791 11.6128 10.1481 11.8748 9.88624ZM10.6189 8.63032C10.7006 8.5486 10.8092 8.50374 10.9246 8.50374C11.0401 8.50374 11.1487 8.5486 11.2302 8.63032C11.3988 8.7989 11.3988 9.07305 11.2302 9.24163C11.0618 9.41022 10.7875 9.41022 10.6189 9.24163C10.4505 9.07305 10.4505 8.7989 10.6189 8.63032Z" fill="#849299"/>
<path d="M4.866 11.0568C4.68798 10.8787 4.39941 10.8787 4.22139 11.0568L2.92648 12.3517C2.84103 12.4371 2.79297 12.553 2.79297 12.6739C2.79297 12.7948 2.84103 12.9107 2.92648 12.9961L8.70552 18.7751C8.79435 18.864 8.91113 18.9085 9.02774 18.9085C9.14434 18.9085 9.26094 18.864 9.34995 18.7751L17.9903 10.1346C18.1683 9.9566 18.1683 9.66803 17.9903 9.49001L12.2114 3.71115C12.126 3.6257 12.0101 3.57764 11.8892 3.57764C11.7683 3.57764 11.6525 3.6257 11.567 3.71115L6.79947 8.47868C6.62145 8.6567 6.62145 8.94527 6.79947 9.12329C6.97731 9.30113 7.26588 9.30113 7.4439 9.12329L11.8892 4.67797L17.0236 9.8124L9.02774 17.8083L3.89331 12.6739L4.866 11.7012C5.04384 11.5232 5.04402 11.2348 4.866 11.0568V11.0568Z" fill="#849299"/>
<path d="M17.9071 12.2109C17.7872 12.2109 17.6697 12.2597 17.5849 12.3445C17.5002 12.4292 17.4514 12.5469 17.4514 12.6667C17.4514 12.7865 17.5002 12.9041 17.5849 12.9889C17.6697 13.0736 17.7872 13.1224 17.9071 13.1224C18.027 13.1224 18.1444 13.0736 18.2294 12.9889C18.3141 12.9041 18.3629 12.7865 18.3629 12.6667C18.3629 12.5469 18.3141 12.4292 18.2294 12.3445C18.1444 12.2597 18.027 12.2109 17.9071 12.2109Z" fill="#849299"/>
<path d="M6.15472 10.4117C6.23999 10.327 6.28841 10.2099 6.28841 10.0895C6.28841 9.96971 6.23999 9.85257 6.15472 9.7673C6.06998 9.68257 5.95284 9.63379 5.83268 9.63379C5.7127 9.63379 5.5952 9.68257 5.51047 9.7673C5.42555 9.85204 5.37695 9.96971 5.37695 10.0895C5.37695 10.2099 5.42555 10.327 5.51047 10.4117C5.59556 10.497 5.7127 10.5452 5.83268 10.5452C5.95284 10.5452 6.06998 10.497 6.15472 10.4117Z" fill="#849299"/>
<path d="M22.1171 4.1218H21.2048L21.2056 2.49079C21.2062 1.39579 20.3159 0.50445 19.2207 0.503916L12.2965 0.5C12.2961 0.5 12.296 0.5 12.2956 0.5C11.9015 0.5 11.5308 0.653453 11.2521 0.932231L0.914841 11.2694C0.539754 11.6445 0.333252 12.1432 0.333252 12.6737C0.333252 13.2042 0.539754 13.7028 0.914841 14.0779L7.62332 20.7864C8.01051 21.1735 8.51911 21.3671 9.02753 21.3671C9.53613 21.3671 10.0447 21.1735 10.4319 20.7864L16.9403 14.278C17.1183 14.1 17.1183 13.8114 16.9403 13.6335C16.7623 13.4555 16.4737 13.4555 16.2957 13.6335L9.78732 20.1419C9.36844 20.5608 8.6868 20.5608 8.26792 20.1419L1.55945 13.4335C1.35651 13.2305 1.24471 12.9606 1.24471 12.6737C1.24471 12.3867 1.35651 12.1168 1.55945 11.9139L11.8965 1.57684C12.0031 1.4702 12.1448 1.41146 12.2956 1.41146H12.296L19.2202 1.41537C19.8126 1.41555 20.2945 1.89798 20.2942 2.49043L20.2921 6.3093H18.2393C18.0625 6.3093 17.9025 6.23702 17.7868 6.1206C17.9774 6.03889 18.1562 5.92086 18.3116 5.76545C18.9665 5.11034 18.9665 4.04472 18.3116 3.38979C17.6565 2.73467 16.5909 2.73467 15.9357 3.38979C15.2808 4.04472 15.2808 5.11034 15.9357 5.76545C16.1786 6.00827 16.478 6.16083 16.7918 6.22367C17.0149 6.80597 17.5794 7.22076 18.2393 7.22076H20.2915L20.2903 9.40541C20.2903 9.55619 20.2315 9.69772 20.1249 9.80417L18.8738 11.0555C18.6958 11.2335 18.6958 11.5221 18.8738 11.7001C19.0516 11.8779 19.3402 11.8779 19.5182 11.7001L20.7695 10.4488C21.0479 10.1702 21.2016 9.7999 21.2017 9.40594L21.203 7.22076H22.1171C22.9714 7.22076 23.6666 6.52577 23.6666 5.67128C23.6666 4.81697 22.9714 4.1218 22.1171 4.1218V4.1218ZM16.5804 4.03422C16.7302 3.88432 16.927 3.80955 17.1238 3.80955C17.3206 3.80955 17.5173 3.8845 17.6672 4.03422C17.7145 4.08175 17.7537 4.13426 17.7861 4.18963C17.2858 4.3429 16.8928 4.74327 16.7491 5.24777C16.6888 5.21413 16.6316 5.17229 16.5804 5.12102C16.2807 4.82124 16.2807 4.33382 16.5804 4.03422V4.03422ZM22.1171 6.3093H21.2035L21.2042 5.03326H22.1171C22.4689 5.03326 22.7551 5.31951 22.7551 5.67128C22.7551 6.02305 22.4689 6.3093 22.1171 6.3093Z" fill="#849299"/>
</svg>
