<svg width="20" height="24" viewBox="0 0 20 24" fill="none" xmlns="http://www.w3.org/2000/svg">
<path d="M18.1993 13.2732L14.524 7.81162C15.0447 7.5522 15.401 7.03455 15.401 6.43924C15.401 5.78765 14.9743 5.22907 14.372 5.00042L15.4854 1.31044C15.5334 1.15124 15.4866 0.979921 15.3631 0.862837C14.6225 0.16079 13.4174 0.16079 12.6768 0.862837C12.4996 1.03078 12.2641 1.12326 12.0135 1.12326C11.763 1.12326 11.5275 1.03078 11.3492 0.861743L11.3468 0.85951C10.6088 0.159833 9.40587 0.157873 8.66489 0.855362L8.65109 0.868397C8.28535 1.21263 7.69135 1.21163 7.32696 0.866164L7.32345 0.862837C6.5828 0.16079 5.37777 0.16079 4.63712 0.862837C4.51356 0.980012 4.46678 1.15147 4.5149 1.31075L5.63071 4.99955C5.02713 5.22762 4.59928 5.78678 4.59928 6.43929C4.59928 7.0346 4.95545 7.55225 5.47623 7.81166L1.80088 13.2732C0.379011 15.3861 0.288912 17.9596 1.55986 20.1572C2.83082 22.3548 5.168 23.6668 7.81188 23.6668H12.1883C14.8321 23.6668 17.1693 22.3548 18.4403 20.1572C19.7112 17.9596 19.6212 15.3861 18.1993 13.2732V13.2732ZM6.64348 1.50737L6.64699 1.51069C7.38509 2.21033 8.58801 2.21224 9.32894 1.51484L9.34274 1.50181C9.70843 1.15757 10.3024 1.15858 10.668 1.50509L10.6703 1.50732C11.411 2.20937 12.616 2.20937 13.3567 1.50732C13.658 1.22165 14.1151 1.17138 14.4713 1.35651L13.4053 4.88967H6.59785L5.52907 1.35647C5.88523 1.17138 6.34217 1.22174 6.64348 1.50737V1.50737ZM17.5971 19.719C16.4976 21.6203 14.4756 22.7554 12.1883 22.7554H7.81193C5.52465 22.7554 3.50266 21.6203 2.40311 19.719C1.30356 17.8178 1.38149 15.5914 2.61158 13.7634L6.49751 7.98881H7.83659C8.10213 7.98881 8.31737 7.78477 8.31737 7.53306C8.31737 7.28134 8.10213 7.0773 7.83659 7.0773H6.23395C5.86278 7.0773 5.56085 6.79109 5.56085 6.43924C5.56085 6.0874 5.86278 5.80118 6.23395 5.80118H6.23553H13.7662C14.1374 5.80118 14.4393 6.0874 14.4393 6.43924C14.4393 6.79109 14.1374 7.0773 13.7662 7.0773H12.1636C11.8981 7.0773 11.6829 7.28134 11.6829 7.53306C11.6829 7.78477 11.8981 7.98881 12.1636 7.98881H13.5027L17.3887 13.7634C18.6187 15.5914 18.6967 17.8177 17.5971 19.719Z" fill="#849299"/>
<path d="M10.8478 15.2176C10.7272 15.1772 10.604 15.1351 10.4809 15.0914V13.0258C10.8069 13.1168 11.0246 13.2642 11.0338 13.2706C11.2453 13.4207 11.5454 13.3809 11.7052 13.181C11.8656 12.9803 11.824 12.6945 11.6123 12.5425C11.5841 12.5222 11.1371 12.2076 10.4809 12.0885V11.635C10.4809 11.3832 10.2657 11.1792 10.0002 11.1792C9.73462 11.1792 9.51938 11.3832 9.51938 11.635V12.0852C9.43793 12.1001 9.35538 12.1188 9.27172 12.1426C8.59507 12.3354 8.08928 12.8839 7.95173 13.5742C7.8262 14.2045 8.03923 14.8124 8.50771 15.1607C8.76195 15.3497 9.0796 15.5223 9.51938 15.7056V18.3488C9.14076 18.3261 8.88748 18.2445 8.46525 17.9826C8.24308 17.8448 7.94505 17.9039 7.7997 18.1145C7.65432 18.3252 7.71662 18.6076 7.93884 18.7454C8.55454 19.1272 8.97142 19.2354 9.51938 19.2609V19.7322C9.51938 19.984 9.73462 20.188 10.0002 20.188C10.2657 20.188 10.4809 19.984 10.4809 19.7322V19.2136C11.5105 18.9998 12.1126 18.1854 12.2477 17.4236C12.4243 16.4276 11.8748 15.5617 10.8478 15.2176ZM9.10114 14.4435C8.91633 14.3061 8.83796 14.0377 8.89661 13.7433C8.95056 13.4725 9.14278 13.1459 9.51938 13.0251V14.6942C9.36129 14.6143 9.21864 14.5308 9.10114 14.4435ZM11.2994 17.2724C11.2302 17.6628 10.9523 18.0768 10.4809 18.2597V16.0612C10.4966 16.0665 10.5114 16.0717 10.5273 16.077C11.3893 16.3658 11.3363 17.065 11.2994 17.2724V17.2724Z" fill="#849299"/>
<path d="M10.0001 7.98867C10.1265 7.98867 10.2506 7.9399 10.34 7.85513C10.4294 7.77036 10.4809 7.65277 10.4809 7.53291C10.4809 7.41304 10.4294 7.29546 10.34 7.21069C10.2506 7.12592 10.1265 7.07715 10.0001 7.07715C9.87363 7.07715 9.74958 7.12592 9.66016 7.21069C9.57073 7.29546 9.51929 7.41304 9.51929 7.53291C9.51929 7.65277 9.57073 7.77036 9.66016 7.85513C9.74958 7.9399 9.87358 7.98867 10.0001 7.98867Z" fill="#849299"/>
</svg>
