<svg width="24" height="24" viewBox="0 0 24 24" fill="none" xmlns="http://www.w3.org/2000/svg">
<g id="icon/search">
<path id="Combined Shape" fill-rule="evenodd" clip-rule="evenodd" d="M18 10C18 5.58172 14.4183 2 10 2C5.58172 2 2 5.58172 2 10C2 14.4183 5.58172 18 10 18C12.0294 18 13.8823 17.2443 15.2927 15.999L21.1474 21.8537L21.2166 21.9115C21.4112 22.0464 21.6804 22.0271 21.8537 21.8537C22.0488 21.6587 22.0488 21.3424 21.8537 21.1474L15.999 15.2927C17.2443 13.8823 18 12.0294 18 10ZM3 10C3 6.13401 6.13401 3 10 3C13.866 3 17 6.13401 17 10C17 13.866 13.866 17 10 17C6.13401 17 3 13.866 3 10Z" fill="#849299"/>
</g>
</svg>
