<svg width="24" height="24" viewBox="0 0 24 24" fill="none" xmlns="http://www.w3.org/2000/svg">
<g id="icon/shop_cart">
<path id="Combined Shape" fill-rule="evenodd" clip-rule="evenodd" d="M6.89199 3C7.10202 3 7.28747 3.12432 7.36567 3.30841L7.39238 3.39078L7.99231 6.005L21.4869 6.00592C21.7994 6.00592 22.0322 6.27349 21.9964 6.56422L21.9798 6.6439L19.9205 13.638C19.8653 13.8255 19.7044 13.962 19.5119 13.9932L19.4276 14H18.5503H9.58254L9.46706 14.0072C9.12561 14.0498 8.83395 14.279 8.7224 14.6034C8.68261 14.7192 8.662 14.8508 8.662 15C8.662 15.1493 8.68263 15.2809 8.72246 15.3967C8.84644 15.7571 9.19271 16 9.58257 16H20.9672L21.0594 16.0081C21.2986 16.0504 21.48 16.2545 21.48 16.5C21.48 16.7761 21.2504 17 20.9672 17H9.58257L9.41781 16.9932C8.65575 16.9299 7.99669 16.4314 7.75015 15.7148C7.67387 15.493 7.63644 15.2542 7.63644 15C7.63644 14.7459 7.67383 14.5072 7.75004 14.2856C7.90233 13.8426 8.21221 13.483 8.60662 13.2579L6.48167 4H2.51278C2.26104 4 2.05168 3.82312 2.00826 3.58988L2 3.5C2 3.25454 2.18139 3.05039 2.4206 3.00806L2.51278 3H6.89199ZM9.59833 13H18.5503H19.0406L20.8056 7.005H8.22203L9.59833 13ZM10.2003 18C9.35073 18 8.662 18.6716 8.662 19.5C8.662 20.3284 9.35073 21 10.2003 21C11.0499 21 11.7387 20.3284 11.7387 19.5C11.7387 18.6716 11.0499 18 10.2003 18ZM10.2003 19C10.4835 19 10.7131 19.2239 10.7131 19.5C10.7131 19.7761 10.4835 20 10.2003 20C9.91713 20 9.68755 19.7761 9.68755 19.5C9.68755 19.2239 9.91713 19 10.2003 19ZM18.4048 18C17.5552 18 16.8664 18.6716 16.8664 19.5C16.8664 20.3284 17.5552 21 18.4048 21C19.2543 21 19.9431 20.3284 19.9431 19.5C19.9431 18.6716 19.2543 18 18.4048 18ZM18.4048 19C18.688 19 18.9175 19.2239 18.9175 19.5C18.9175 19.7761 18.688 20 18.4048 20C18.1216 20 17.892 19.7761 17.892 19.5C17.892 19.2239 18.1216 19 18.4048 19Z" fill="#849299"/>
</g>
</svg>
