<svg width="20" height="20" viewBox="0 0 20 20" fill="none" xmlns="http://www.w3.org/2000/svg">
<path d="M12.4042 7.70508C12.1886 7.70508 12.0139 7.87981 12.0139 8.0954V15.4724C12.0139 15.6879 12.1886 15.8628 12.4042 15.8628C12.6198 15.8628 12.7946 15.6879 12.7946 15.4724V8.0954C12.7946 7.87981 12.6198 7.70508 12.4042 7.70508Z" fill="#849299"/>
<path d="M7.79852 7.70508C7.58293 7.70508 7.4082 7.87981 7.4082 8.0954V15.4724C7.4082 15.6879 7.58293 15.8628 7.79852 15.8628C8.01411 15.8628 8.18884 15.6879 8.18884 15.4724V8.0954C8.18884 7.87981 8.01411 7.70508 7.79852 7.70508Z" fill="#849299"/>
<path fill-rule="evenodd" clip-rule="evenodd" d="M4.44182 16.245V6.62835C3.71806 6.43624 3.24906 5.73701 3.34588 4.99434C3.44285 4.25182 4.07544 3.69637 4.82437 3.69622H6.82278V3.20832C6.82049 2.79803 6.98272 2.40405 7.27317 2.1142C7.56362 1.82451 7.95821 1.6632 8.36851 1.66656H11.8344C12.2447 1.6632 12.6393 1.82451 12.9298 2.1142C13.2202 2.40405 13.3824 2.79803 13.3802 3.20832V3.69622H15.3786C16.1275 3.69637 16.7601 4.25182 16.8571 4.99434C16.9539 5.73701 16.4849 6.43624 15.7611 6.62835V16.245C15.7611 16.8134 15.5527 17.3472 15.1886 17.7302C14.8263 18.1143 14.322 18.3323 13.794 18.3332H6.40898C5.88113 18.3323 5.37676 18.1143 5.01434 17.7302C4.65025 17.3472 4.44182 16.8134 4.44182 16.245ZM6.40897 17.5526H13.7939C14.4613 17.5526 14.9805 16.9793 14.9805 16.245V6.66265H5.22246V16.245C5.22246 16.9793 5.74162 17.5526 6.40897 17.5526ZM7.60341 3.20831C7.60082 3.00507 7.68072 2.80945 7.82495 2.66598C7.96903 2.5225 8.16511 2.44368 8.3685 2.44718H11.8344C12.0378 2.44368 12.2339 2.5225 12.378 2.66598C12.5222 2.8093 12.6021 3.00507 12.5995 3.20831V3.69621H7.60341V3.20831ZM15.3786 4.47684H4.82436C4.43633 4.47684 4.12179 4.79138 4.12179 5.17941C4.12179 5.56745 4.43633 5.88199 4.82436 5.88199H15.3786C15.7666 5.88199 16.0811 5.56745 16.0811 5.17941C16.0811 4.79138 15.7666 4.47684 15.3786 4.47684Z" fill="#849299"/>
<path d="M10.1015 7.70508C9.88591 7.70508 9.71118 7.87981 9.71118 8.0954V15.4724C9.71118 15.6879 9.88591 15.8628 10.1015 15.8628C10.3171 15.8628 10.4918 15.6879 10.4918 15.4724V8.0954C10.4918 7.87981 10.3171 7.70508 10.1015 7.70508Z" fill="#849299"/>
</svg>
