<svg width="24" height="24" viewBox="0 0 24 24" fill="none" xmlns="http://www.w3.org/2000/svg">
<g id="icon/user">
<path id="Combined Shape" fill-rule="evenodd" clip-rule="evenodd" d="M12 3C9.51472 3 7.5 5.01472 7.5 7.5C7.5 8.91488 8.15299 10.1773 9.17404 11.0022C6.3022 11.0812 4 13.2885 4 16V18.5C4 19.8807 5.19391 21 6.66667 21H17.3333C18.8061 21 20 19.8807 20 18.5V16C20 13.2885 17.6978 11.0812 14.826 11.0022C15.847 10.1773 16.5 8.91488 16.5 7.5C16.5 5.01472 14.4853 3 12 3ZM12 11C13.933 11 15.5 9.433 15.5 7.5C15.5 5.567 13.933 4 12 4C10.067 4 8.5 5.567 8.5 7.5C8.5 9.433 10.067 11 12 11ZM12 12H9.30769C6.92862 12 5 13.7909 5 16V18.5C5 19.3284 5.72323 20 6.61538 20H8V16.5C8 16.2239 8.22386 16 8.5 16C8.74546 16 8.94961 16.1769 8.99194 16.4101L9 16.5V20H15V16.5C15 16.2239 15.2239 16 15.5 16C15.7455 16 15.9496 16.1769 15.9919 16.4101L16 16.5V20H17.3846C18.2768 20 19 19.3284 19 18.5V16C19 13.7909 17.0714 12 14.6923 12H12Z" fill="#849299"/>
</g>
</svg>
