<svg width="24" height="24" viewBox="0 0 24 24" fill="none" xmlns="http://www.w3.org/2000/svg">
<g id="icon/wallet">
<path id="Combined Shape" fill-rule="evenodd" clip-rule="evenodd" d="M11.9997 3C9.23848 3 7 5.23861 7 8C7 8.7111 7.14844 9.38754 7.41603 10H5.5C4.67157 10 4 10.6716 4 11.5V20.5C4 21.3284 4.67157 22 5.5 22H18.5C19.3284 22 20 21.3284 20 20.5V11.5C20 10.6716 19.3284 10 18.5 10H16.584C16.8516 9.38754 17 8.71111 17 8C17 5.23852 14.7614 3 11.9997 3ZM9.85176 10H8.53511C8.19478 9.41165 8 8.72857 8 8C8 5.79088 9.79078 4 11.9997 4C14.2091 4 16 5.79081 16 8C16 8.72858 15.8052 9.41166 15.4649 10H13.5154L14.4851 6.12139L14.4991 6.03224C14.5146 5.79569 14.3594 5.57458 14.1213 5.51505L14.0321 5.50106C13.7956 5.48556 13.5745 5.64072 13.5149 5.87885L12.5149 9.87885L12.5009 9.968C12.5002 9.9787 12.4999 9.98937 12.4999 10H12.1254C12.3615 9.71987 12.488 9.3297 12.4206 8.851C12.3234 8.16096 11.9737 7.89878 11.1839 7.6071L11.0518 7.55717C10.6616 7.40509 10.5866 7.32281 10.5744 7.08487C10.5414 6.43952 11.3024 6.27736 11.5355 6.86289L11.5762 6.94342C11.7018 7.14446 11.9569 7.23329 12.1849 7.1425C12.4415 7.04036 12.5667 6.74957 12.4645 6.49302C11.8146 4.86052 9.4848 5.35704 9.57575 7.13593C9.61611 7.92527 9.99043 8.23234 10.8321 8.54318L10.9673 8.59432C11.3249 8.734 11.405 8.81015 11.4303 8.99038C11.5086 9.54634 10.7837 9.73523 10.4346 9.12142C10.2981 8.88139 9.99284 8.79747 9.75281 8.93399C9.51277 9.07051 9.42886 9.37577 9.56538 9.61581C9.64925 9.76328 9.74587 9.89105 9.85176 10ZM18.5 11H5.5C5.22386 11 5 11.2239 5 11.5V20.5C5 20.7761 5.22386 21 5.5 21H18.5C18.7761 21 19 20.7761 19 20.5V18.4956H16.2707C15.0166 18.4956 14 17.3773 14 15.9978C14 14.6735 14.9369 13.5899 16.1214 13.5053L16.2707 13.5H19V11.5C19 11.2239 18.7761 11 18.5 11ZM19 14.5H16.2707C15.5187 14.5 14.9091 15.1706 14.9091 15.9978C14.9091 16.7763 15.4491 17.4162 16.1396 17.4887L16.2707 17.4956H19V14.5Z" fill="#849299"/>
</g>
</svg>
